<?xml version="1.0" standalone="no"?><!-- Generator: Gravit.io --><svg xmlns="http://www.w3.org/2000/svg" xmlns:xlink="http://www.w3.org/1999/xlink" style="isolation:isolate" width="600" height="600"><path d=" M 353.0633090825707 300.00625403906696 L 589.005857705697 64.0538681231628 C 603.6647140981008 49.406908628489155 603.6647140981008 25.64156017427914 589.005857705697 10.994600679605492 C 574.3470013132934 -3.6648668932019506 550.6076587938545 -3.6648668932019506 535.9488024014508 10.994600679605492 L 300.0062537783244 246.9469865955096 L 64.05119759854907 10.994600679605494 C 49.392341206145325 -3.664866893201949 25.652998686706496 -3.664866893201949 10.99414229430275 10.994600679605494 C -3.6647140981009936 25.641560174279146 -3.6647140981009936 49.40690862848916 10.99414229430275 64.0538681231628 L 246.94919847407803 300.00625403906696 L 10.994142294302744 535.958639954971 C -3.6647140981009994 550.6055994496446 -3.6647140981009994 574.3709479038547 10.994142294302744 589.0179073985283 C 18.32357049050462 596.3351331067983 27.929373996789664 600.0000000000001 37.5226699464259 600.0000000000001 C 47.11596589606214 600.0000000000001 56.72176940234719 596.3351331067983 64.05119759854907 589.0053993203945 L 300.0062537783243 353.05301340449046 L 535.9488024014508 589.0053993203945 C 543.2782305976526 596.3351331067983 552.8840341039377 600.0000000000001 562.477330053574 600.0000000000001 C 572.0706260032102 600.0000000000001 581.6764295094953 596.3351331067983 589.0058577056972 589.0053993203945 C 603.6647140981008 574.3584398257209 603.6647140981008 550.5930913715109 589.0058577056972 535.9461318768373 L 353.0633090825707 300.00625403906696 Z " fill="rgb(255,255,255)" stroke-width="10.673115006983387" stroke="rgba(0,0,0,0)" stroke-linejoin="miter" stroke-linecap="butt"/></svg>