<?xml version="1.0" standalone="no"?><!-- Generator: Gravit.io --><svg xmlns="http://www.w3.org/2000/svg" xmlns:xlink="http://www.w3.org/1999/xlink" style="isolation:isolate" width="600" height="600"><path d=" M 593.1650117026818 560.1781196864761 L 446.73296890430225 413.7519180525028 C 483.13025357106744 369.9829967237589 505.0582023747501 313.77887446605564 505.0582023747501 252.5390867996516 C 505.0613127220982 113.28847509642101 391.7762416117819 0 252.5322115347231 0 C 113.28507111031615 0 -9.237055564881302e-14 113.28847509642101 -9.237055564881302e-14 252.5390867996516 C -9.237055564881302e-14 391.7803674366524 113.28507111031615 505.05951146684356 252.5322115347231 505.05951146684356 C 313.7718404702844 505.05951146684356 369.9758170493689 483.13461618214234 413.74462493098906 446.74034753037773 L 560.1766677293687 593.1665491643511 C 564.7302162468993 597.7232198399203 570.7020831551363 599.9999999999999 576.6708397160252 599.9999999999999 C 582.6395962769142 599.9999999999999 588.6114631851511 597.7232198399203 593.1650117026818 593.1665491643511 C 602.2783294324394 584.0563181686226 602.2783294324394 569.2883506822046 593.1650117026818 560.1781196864761 Z  M 46.6552102206013 252.5390867996516 C 46.6552102206013 139.0142246920748 139.01075402595578 46.65533114917264 252.5322115347231 46.65533114917264 C 366.05055869614233 46.65533114917264 458.40299215414876 139.0142246920748 458.40299215414876 252.5390867996516 C 458.40299215414876 366.05461784099856 366.0505586961423 458.4041803176709 252.5322115347231 458.4041803176709 C 139.01075402595578 458.4041803176709 46.6552102206013 366.05461784099856 46.6552102206013 252.5390867996516 Z " fill-rule="evenodd" fill="rgb(255,255,255)" stroke-width="2.6541699498195994" stroke="rgba(0,0,0,0)" stroke-linejoin="miter" stroke-linecap="butt"/><path d=" M 367.1298492259122 229.1989798034255 L 137.93146349618584 229.1989798034255 C 125.04840478060379 229.1989798034255 114.60385838588516 239.64355327002028 114.60385838588516 252.5266453780118 C 114.60385838588516 265.40973748600334 125.04840478060379 275.85431095259815 137.93146349618584 275.85431095259815 L 367.1298492259122 275.85431095259815 C 380.0129079414943 275.85431095259815 390.4574543362129 265.40973748600334 390.4574543362129 252.5266453780118 C 390.4574543362129 239.64355327002028 380.0129079414943 229.1989798034255 367.1298492259122 229.1989798034255 Z " fill="rgb(255,255,255)" stroke-width="2.6541699498195994" stroke="rgba(0,0,0,0)" stroke-linejoin="miter" stroke-linecap="butt"/></svg>