<?xml version="1.0" standalone="no"?><!-- Generator: Gravit.io --><svg xmlns="http://www.w3.org/2000/svg" xmlns:xlink="http://www.w3.org/1999/xlink" style="isolation:isolate" width="600" height="600"><path d=" M 36.06805929919138 353.5040431266847 C 40.07538746630728 357.50926549865227 44.68707884097036 359.51398247978443 49.89681603773585 359.51398247978443 C 55.106553234501355 359.51398247978443 59.71824460916443 357.5092654986523 63.72557277628033 353.5040431266847 L 300.0042115902965 117.22119272237194 L 536.2912735849056 353.5040431266847 C 540.2964959568734 357.50926549865227 544.9102931266847 359.51398247978443 550.1116071428572 359.51398247978443 C 555.3297675202157 359.51398247978443 559.9414588948788 357.5092654986523 563.9466812668464 353.5040431266847 L 594.004801212938 323.4396057951483 C 598.0100235849056 319.4343834231807 600 314.82058625336936 600 309.61927223719687 C 600 304.4074292452831 597.9973888140161 299.79573787062003 594.004801212938 295.7905154986524 L 313.8224393530997 15.622894204851729 C 309.8193227762803 11.609248652291084 305.213948787062 9.615060646900245 300.00421159029645 9.615060646900245 C 294.7944743935309 9.615060646900245 290.18067722371967 11.615566037735826 286.17545485175197 15.622894204851727 L 6.014150943396233 295.78840970350404 C 2.0005053908355865 299.7957378706199 7.105427357601002e-15 304.4011118598383 7.105427357601002e-15 309.62348382749326 C 7.105427357601002e-15 314.82058625336924 2.0068227762803303 319.4322776280323 6.014150943396233 323.4396057951482 L 36.06805929919138 353.5040431266847 Z " fill="rgb(255,255,255)" stroke-width="1.796938886529627" stroke="rgba(0,0,0,0)" stroke-linejoin="miter" stroke-linecap="butt"/><path d=" M 313.8224393530997 246.4938510781671 C 309.8193227762803 242.48020552560644 305.213948787062 240.4797001347709 300.00421159029645 240.4797001347709 C 294.7944743935309 240.4797001347709 290.18067722371967 242.48652291105122 286.17545485175197 246.4938510781671 L 6.014150943396233 526.6593665768194 C 2.0005053908355865 530.6666947439353 7.105427357601002e-15 535.2762803234501 7.105427357601002e-15 540.4944407008087 C 7.105427357601002e-15 545.6999663072776 2.0068227762803303 550.3095518867925 6.014150943396233 554.3168800539084 L 36.06805929919138 584.3792115902966 C 40.07538746630728 588.3865397574125 44.68707884097036 590.3765161725069 49.89681603773585 590.3765161725069 C 55.106553234501355 590.3765161725069 59.71824460916443 588.373904986523 63.72557277628033 584.3792115902966 L 300.0042115902965 348.09004380053915 L 536.2912735849056 584.3792115902966 C 540.2964959568734 588.3865397574125 544.9102931266847 590.3849393530998 550.1116071428572 590.3849393530998 C 555.3297675202157 590.3849393530998 559.9414588948788 588.3886455525608 563.9466812668464 584.3792115902966 L 594.004801212938 554.3168800539084 C 598.0100235849056 550.3095518867925 600 545.6978605121294 600 540.4944407008087 C 600 535.2762803234501 597.9973888140161 530.6666947439353 594.004801212938 526.6593665768195 L 313.8224393530997 246.4938510781671 Z " fill="rgb(255,255,255)" stroke-width="1.796938886529627" stroke="rgba(0,0,0,0)" stroke-linejoin="miter" stroke-linecap="butt"/></svg>