<?xml version="1.0" standalone="no"?><!-- Generator: Gravit.io --><svg xmlns="http://www.w3.org/2000/svg" xmlns:xlink="http://www.w3.org/1999/xlink" style="isolation:isolate" width="600" height="600"><path d=" M 293.5842803998773 4.090064858490576 C 332.1996493138235 4.090064858490576 363.4308881219681 35.32130366663516 363.4308881219681 73.93667258058137 C 363.4308881219681 112.5520414945276 332.1996493138235 143.78328030267215 293.58428039987734 143.78328030267215 C 254.9689114859312 143.78328030267215 223.73767267778658 112.5520414945276 223.73767267778658 73.93667258058137 C 223.73767267778658 35.32130366663516 254.96891148593107 4.090064858490576 293.5842803998773 4.090064858490576 Z  M 357.1362198350552 187.60385568464247 L 355.32045013690725 187.60385568464247 L 242.98483147815466 187.60385568464247 L 238.8690868290193 187.60385568464247 C 215.86933731914536 187.60385568464247 197.3484863980364 206.24575791896132 197.3484863980364 229.12445611562535 L 197.3484863980364 229.12445611562535 C 197.3484863980364 252.1242056254993 215.9903886323553 270.64505654660826 238.86908682901935 270.64505654660826 L 242.98483147815466 270.64505654660826 L 242.98483147815466 512.7476829663337 L 197.3484863980364 512.7476829663337 L 197.3484863980364 595.9099351415094 L 402.6515136019636 595.9099351415094 L 402.6515136019636 512.7476829663337 L 357.2572711482651 512.7476829663337 L 357.2572711482651 187.60385568464247 L 357.1362198350552 187.60385568464247 Z " fill-rule="evenodd" fill="rgb(255,255,255)" stroke-width="1.0472489261607691" stroke="rgba(0,0,0,0)" stroke-linejoin="miter" stroke-linecap="butt"/></svg>