<?xml version="1.0" standalone="no"?><!-- Generator: Gravit.io --><svg xmlns="http://www.w3.org/2000/svg" xmlns:xlink="http://www.w3.org/1999/xlink" style="isolation:isolate" width="600" height="600"><path d=" M 572.2818220082332 6.039613253960852e-14 L 396.6101694915254 6.039613253960852e-14 C 381.3004958474063 6.039613253960852e-14 368.89199149975866 12.690030236855428 368.89199149975866 28.347051906601777 C 368.89199149975866 44.00407357634812 381.3004958474063 56.6941038132035 396.6101694915254 56.6941038132035 L 505.3639807409993 56.6941038132035 L 239.5774517755033 328.5108348731733 C 228.7519633709411 339.5819334789183 228.7519633709411 357.5287670082312 239.5774517755033 368.59986561397625 C 244.9917358765617 374.1338400806317 252.08450964489933 376.90240215017644 259.177283413237 376.90240215017644 C 266.27005718157466 376.90240215017644 273.3628309499122 374.13384008063167 278.7771150509707 368.59986561397625 L 544.5636440164666 96.78313455400644 L 544.5636440164666 208.0075172182094 C 544.5636440164666 223.66453888795576 556.9721483641142 236.3545691248111 572.2818220082333 236.3545691248111 C 587.5914956523525 236.3545691248111 600 223.66453888795576 600 208.0075172182094 L 600 28.35020157903584 C 599.9999999999999 12.690030236855431 587.5914956523523 6.039613253960852e-14 572.2818220082332 6.039613253960852e-14 Z " fill="rgb(255,255,255)" stroke-width="2.628093913293433" stroke="rgba(0,0,0,0)" stroke-linejoin="miter" stroke-linecap="butt"/><path d=" M 458.8898356414704 236.35141945237703 C 443.5801619973513 236.35141945237703 431.17165764970366 249.0414496892324 431.17165764970366 264.69847135897874 L 431.17165764970366 543.3058961867965 L 55.43635598353326 543.3058961867965 L 55.43635598353326 159.04585923064005 L 344.2536110626328 159.04585923064005 C 359.5632847067519 159.04585923064005 371.97178905439944 146.35582899378468 371.97178905439944 130.6988073240383 C 371.97178905439944 115.04178565429196 359.5632847067519 102.35175541743659 344.2536110626328 102.35175541743659 L 27.718177991766588 102.35175541743659 C 12.408504347647462 102.35175541743659 -8.526512829121202e-14 115.04178565429196 -8.526512829121202e-14 130.6988073240383 L -8.526512829121202e-14 571.6529480933983 C -8.526512829121202e-14 587.3099697631446 12.408504347647462 600 27.718177991766588 600 L 458.8898356414704 600 C 474.19950928558956 600 486.6080136332371 587.3099697631446 486.6080136332371 571.6529480933983 L 486.6080136332371 264.69847135897874 C 486.6080136332371 249.04144968923242 474.19950928558956 236.35141945237703 458.8898356414704 236.35141945237703 Z " fill="rgb(255,255,255)" stroke-width="2.628093913293433" stroke="rgba(0,0,0,0)" stroke-linejoin="miter" stroke-linecap="butt"/></svg>