<?xml version="1.0" standalone="no"?><!-- Generator: Gravit.io --><svg xmlns="http://www.w3.org/2000/svg" xmlns:xlink="http://www.w3.org/1999/xlink" style="isolation:isolate" width="600" height="600"><path d=" M 499.9447965478881 424.1243980325733 C 474.63422445470803 424.1243980325733 451.97847486768046 433.09892545600997 434.7170717729159 447.2490874088123 L 197.0131139803797 322.2992156571513 C 198.72863499983154 315.374376610245 200.0560462529078 308.3992664994773 200.0560462529078 301.19907912551196 C 200.0560462529078 293.99889175154664 198.70082257357663 287.04891717270965 197.0131139803797 280.0989425938726 L 432.03317263931507 156.3235856978823 C 449.95828136061766 171.32378563961356 473.6645821393656 180.69819652558394 499.9447965478881 180.69819652558394 C 555.3522064524831 180.69819652558394 600.0000000000001 140.4230767033607 600.0000000000001 90.34852700070263 C 600.0000000000002 40.374519425767346 555.3243940262282 0 499.9447965478881 0 C 444.6473721471195 0 399.9730303745408 40.374519425767346 399.9730303745408 90.32453399295062 C 399.9730303745408 97.62412097046003 401.328254053872 104.47469594575296 403.0159626470689 111.42467052458997 L 167.99463978694007 235.29942702412438 C 150.0417186393825 220.22496301077973 126.36323028688949 210.87454513256137 100.05520345211215 210.87454513256137 C 44.6477935475172 210.87454513256137 9.237055564881302e-14 251.2250715505767 9.237055564881302e-14 301.199079125512 C 9.237055564881302e-14 351.1730867004473 44.6477935475172 391.54874865039335 100.05520345211215 391.54874865039335 C 126.33415365944114 391.54874865039335 150.0417186393825 382.1731952402443 167.96682736068513 367.1741378226917 L 405.2548629605908 492.3993579014116 C 403.62277921990375 498.7746428183786 402.5987762532449 505.424133538226 402.5987762532449 512.0496312503213 C 402.5987762532449 560.549782634775 446.33255233792954 600 499.9157199204397 600 C 553.5532481542665 600 597.314836665206 560.5749181667056 597.314836665206 512.0496312503213 C 597.314836665206 463.524344333937 553.5823247817149 424.1243980325733 499.9447965478881 424.1243980325733 Z " fill="rgb(255,255,255)" stroke-width="0.9749558223143013" stroke="rgba(0,0,0,0)" stroke-linejoin="miter" stroke-linecap="butt"/></svg>