<?xml version="1.0" standalone="no"?><!-- Generator: Gravit.io --><svg xmlns="http://www.w3.org/2000/svg" xmlns:xlink="http://www.w3.org/1999/xlink" style="isolation:isolate" width="600" height="600"><path d=" M 282.32254130922786 442.6779713771196 C 282.3319163183824 442.68734638627416 282.34129132753696 442.6943776431401 282.34949446054725 442.7025807761504 C 282.92371377126483 443.2744563345793 283.52605810944607 443.8182068655445 284.15418372280243 444.333832369046 C 284.44480900659414 444.5728951024876 284.7506686802621 444.7791453038882 285.0494970970641 445.00297364745364 C 285.4034036926492 445.2678176560703 285.75027903136845 445.5432085499859 286.11942001682974 445.78930254029336 C 286.4756703647035 446.028365273735 286.8459832263091 446.23461547513557 287.2116085833374 446.45258443797934 C 287.545593284469 446.65180338251406 287.87254672873473 446.86156921234755 288.21590643902096 447.045553767006 C 288.5885630529152 447.2447727115407 288.9729384282527 447.4146947524673 289.3537981751572 447.59399180254854 C 289.7123922753196 447.76391384347517 290.06512699476036 447.94203901741207 290.4330961040773 448.0955547923182 C 290.8022370895386 448.24789869107997 291.1795812080102 448.37211756237804 291.55458157419304 448.5057114428307 C 291.94950383482944 448.6475084562936 292.3385667147442 448.79868047891114 292.7416921083908 448.92055559792055 C 293.1166924745737 449.03422758391974 293.4987240976225 449.11743079016657 293.87724009223837 449.21235275785665 C 294.2885686188953 449.3166497347013 294.69520964097484 449.4314935968448 295.11356942449765 449.51469680309157 C 295.55302297861823 449.60141563777137 295.9959921611718 449.65297818812155 296.437789467581 449.7174313760592 C 296.802242948465 449.76899392640934 297.1608370486274 449.8393064950686 297.531149910233 449.8756346555426 C 299.1717765122832 450.03735356345896 300.82529375192087 450.03735356345896 302.4659203539711 449.8756346555426 C 302.8350613394324 449.8393064950686 303.19365543959475 449.7701658025537 303.5592807966231 449.7174313760592 C 304.00107810303234 449.6541500642659 304.44521916173017 449.6025875139157 304.88350083970647 449.51469680309157 C 305.30303249937356 449.43149359684475 305.70850164530884 449.3166497347013 306.1198301719657 449.21235275785665 C 306.4995180427259 449.11743079016657 306.8803777896304 449.0342275839198 307.2553781558133 448.92055559792055 C 307.6585035494599 448.79868047891114 308.048738305519 448.6475084562936 308.442488690011 448.5057114428307 C 308.8174890561939 448.37094568623377 309.1948331746654 448.24789869107997 309.5639741601267 448.0955547923182 C 309.9319432694437 447.94321089355634 310.2846779888845 447.76391384347517 310.64327208904683 447.59399180254854 C 311.0241318359514 447.4146947524673 311.40850721128885 447.245944587685 311.7811638251831 447.045553767006 C 312.12452353546934 446.86156921234755 312.45147697973505 446.65180338251395 312.7854616808667 446.45258443797934 C 313.151087037895 446.23461547513557 313.52139989950064 446.0271933975906 313.8776502473744 445.78930254029336 C 314.2467912328357 445.54203667384155 314.5936665715549 445.2678176560703 314.94757316714004 445.00297364745364 C 315.246401583942 444.77914530388824 315.5522612576099 444.5717232263433 315.8428865414017 444.333832369046 C 316.46984027861373 443.8193787416888 317.07335649293935 443.2756282107236 317.64757580365693 442.7025807761504 C 317.6569508128115 442.6943776431401 317.6663258219661 442.6861745101299 317.6745289549763 442.6779713771196 L 442.67504164132384 317.67745869077214 C 452.43794179966676 307.9145585324292 452.43794179966676 292.0848555749336 442.67504164132384 282.32195541659075 C 432.9121414829809 272.55905525824784 417.0824385254854 272.55905525824784 407.31953836714246 282.32195541659075 L 324.9975829808417 364.64391080289147 L 324.9975829808417 24.999047894174556 C 324.99992673313034 11.192003161777974 313.8073376787151 -0.0005858926372184214 300.00029294631855 -0.0005858926372184214 C 286.193248213922 -0.0005858926372184214 275.00065915950677 11.192003161777974 275.00065915950677 24.999047894174556 L 275.00065915950677 364.64391080289147 L 192.67870377320605 282.32195541659075 C 182.91580361486314 272.55905525824784 167.08610065736752 272.55905525824784 157.3232004990246 282.32195541659075 C 147.56030034068175 292.0848555749336 147.56030034068175 307.9145585324292 157.3232004990246 317.67745869077214 L 282.32254130922786 442.6779713771196 Z " fill="rgb(255,255,255)" stroke-width="1" stroke="rgba(0,0,0,0)" stroke-linejoin="miter" stroke-linecap="butt"/><path d=" M 575.0009521058254 425.0002197400289 C 561.1939073734288 425.0002197400289 550.0013183190136 436.1928087944441 550.0013183190136 449.9998535268407 L 550.0013183190136 549.9995605502321 L 50.00043944976783 549.9995605502321 L 50.00043944976783 449.9998535268407 C 50.00043944976783 436.19280879444415 38.80785039535264 425.00021974002897 25.00080566295606 425.00021974002897 C 11.19258905441515 425.0002197400289 -4.263256414560601e-14 436.19280879444415 -4.263256414560601e-14 449.9998535268407 L -4.263256414560601e-14 575.0003662131883 C -4.263256414560601e-14 588.8074109455848 11.19258905441515 600 24.99963378681173 600 L 574.9997802296812 600 C 588.8068249620777 600 599.9994140164929 588.8074109455848 599.9994140164929 575.0003662131883 L 599.9994140164929 449.9998535268407 C 600.0005858926372 436.19280879444415 588.807996838222 425.0002197400289 575.0009521058254 425.0002197400289 Z " fill="rgb(255,255,255)" stroke-width="1" stroke="rgba(0,0,0,0)" stroke-linejoin="miter" stroke-linecap="butt"/></svg>