<?xml version="1.0" standalone="no"?><!-- Generator: Gravit.io --><svg xmlns="http://www.w3.org/2000/svg" xmlns:xlink="http://www.w3.org/1999/xlink" style="isolation:isolate" width="600" height="600"><path d=" M 593.1646272893082 560.1781196864762 L 446.73578973470325 413.75191805250273 C 483.1330508134234 369.9829967237589 505.0609854062261 313.77887446605564 505.0609854062261 252.53908679965167 C 505.0609854062261 113.28847509642107 391.7759877127425 7.460698725481052e-14 252.53204787577926 7.460698725481052e-14 C 113.2849976934837 7.460698725481052e-14 8.881784197001252e-14 113.28847509642107 8.881784197001252e-14 252.53908679965167 C 8.881784197001252e-14 391.7803674366524 113.2849976934837 505.0595114668435 252.53204787577926 505.0595114668435 C 313.7685267783466 505.0595114668435 369.97557727856463 483.13461618214234 413.7443567948652 446.7372371749678 L 560.1763046948025 593.1665491643512 C 564.7298502613079 597.7232198399204 570.7017132993478 600 576.6704659920554 600 C 582.639218684763 600 588.6110817228029 597.7232198399204 593.1677376346406 593.1665491643512 C 602.2779391129837 584.0563181686226 602.2779391129837 569.2883506822046 593.1646272893082 560.1781196864762 Z  M 46.655179984686654 252.53908679965167 C 46.655179984686654 139.01422469207486 139.01066393703988 46.65533114917271 252.53204787577926 46.65533114917271 C 366.0503214691863 46.65533114917271 458.40269507620724 139.01422469207486 458.40269507620724 252.53908679965167 C 458.40269507620724 366.05461784099856 366.0503214691863 458.4041803176709 252.53204787577926 458.4041803176709 C 139.01066393703988 458.4041803176709 46.655179984686654 366.05461784099856 46.655179984686654 252.53908679965167 Z " fill-rule="evenodd" fill="rgb(255,255,255)" stroke-width="2.6541699498195994" stroke="rgba(0,0,0,0)" stroke-linejoin="miter" stroke-linecap="butt"/><path d=" M 367.1296112994987 229.19897980342554 L 275.85652752279026 229.19897980342554 L 275.85652752279026 137.9287106540041 C 275.85652752279026 125.04561854601255 265.41509824221737 114.60104507941779 252.52893753044694 114.60104507941779 C 239.6427768186765 114.60104507941779 229.20134753810365 125.04561854601255 229.20134753810365 137.9287106540041 L 229.20134753810365 229.20209015883552 L 137.93137410672745 229.20209015883552 C 125.04521339495702 229.20209015883552 114.60378411438417 239.6466636254303 114.60378411438417 252.5297557334218 C 114.60378411438417 265.41284784141334 125.04521339495702 275.8574213080081 137.93137410672745 275.8574213080081 L 229.20134753810365 275.8574213080081 L 229.20134753810365 367.1339111682495 C 229.20134753810365 380.017003276241 239.6427768186765 390.4615767428358 252.52893753044694 390.4615767428358 C 265.41509824221737 390.4615767428358 275.85652752279026 380.017003276241 275.85652752279026 367.1339111682495 L 275.85652752279026 275.85431095259815 L 367.1296112994987 275.85431095259815 C 380.0157720112692 275.85431095259815 390.457201291842 265.40973748600334 390.457201291842 252.52664537801186 C 390.457201291842 239.64355327002033 380.0157720112692 229.19897980342554 367.1296112994987 229.19897980342554 Z " fill="rgb(255,255,255)" stroke-width="2.6541699498195994" stroke="rgba(0,0,0,0)" stroke-linejoin="miter" stroke-linecap="butt"/></svg>