<?xml version="1.0" standalone="no"?><!-- Generator: Gravit.io --><svg xmlns="http://www.w3.org/2000/svg" xmlns:xlink="http://www.w3.org/1999/xlink" style="isolation:isolate" viewBox="1537.0885905551916 558.8732809430255 192.46329040238652 249.0117878192534" width="192.46329040238652" height="249.0117878192534"><rect x="1583.7562031579712" y="598.5375497819457" width="135.7956777996069" height="199.34751898033323" transform="matrix(1,0,0,1,0,0)" fill="rgb(23,23,23)" stroke-width="20" stroke="rgb(178,225,106)" stroke-linejoin="miter" stroke-linecap="square"/><defs><filter id="gCb8czZ8izy2B8Ccd1WfYSbhkCquL82s" x="-200%" y="-200%" width="400%" height="400%"><feOffset xmlns="http://www.w3.org/2000/svg" in="SourceAlpha" result="offOut" dx="5" dy="5"/><feGaussianBlur xmlns="http://www.w3.org/2000/svg" in="offOut" result="blurOut" stdDeviation="2.5"/><feComponentTransfer xmlns="http://www.w3.org/2000/svg" in="blurOut" result="opacOut"><feFuncA xmlns="http://www.w3.org/2000/svg" type="table" tableValues="0 0.5"/></feComponentTransfer><feBlend xmlns="http://www.w3.org/2000/svg" in="SourceGraphic" in2="opacOut" mode="normal"/></filter></defs><g filter="url(#gCb8czZ8izy2B8Ccd1WfYSbhkCquL82s)"><rect x="1547.0885905551916" y="568.8732809430255" width="135.7956777996069" height="199.34751898033323" transform="matrix(1,0,0,1,0,0)" fill="rgb(23,23,23)" stroke-width="20" stroke="rgb(178,225,106)" stroke-linejoin="miter" stroke-linecap="square"/></g><path d=" M 1653.827545585707 731.4978972249511 L 1578.417389335707 731.4978972249511 L 1578.417389335707 713.9197722249511 L 1613.046295585707 669.8865690999511 Q 1619.638092460707 660.7459440999511 1622.758209648207 653.8465300374511 Q 1625.878326835707 646.9471159749511 1625.878326835707 640.6189909749511 Q 1625.878326835707 632.0936003499511 1622.933990898207 627.2596159749511 Q 1619.989654960707 622.4256315999511 1614.452545585707 622.4256315999511 Q 1608.388092460707 622.4256315999511 1604.828522148207 628.0506315999511 Q 1601.268951835707 633.6756315999511 1601.268951835707 643.8709440999511 L 1576.308014335707 643.8709440999511 Q 1576.308014335707 632.0936003499511 1581.185944023207 622.3377409749511 Q 1586.063873710707 612.5818815999511 1594.896881523207 607.1766081624511 Q 1603.729889335707 601.7713347249511 1614.891998710707 601.7713347249511 Q 1632.030670585707 601.7713347249511 1641.478912773207 611.2195769124511 Q 1650.927154960707 620.6678190999511 1650.927154960707 638.0701628499511 Q 1650.927154960707 648.8807097249511 1645.697662773207 659.9988737874511 Q 1640.468170585707 671.1170378499511 1626.757233085707 687.3768034749511 L 1610.321686210707 710.8436003499511 L 1653.827545585707 710.8436003499511 L 1653.827545585707 731.4978972249511 Z " fill="rgb(255,255,255)" stroke-width="2" stroke="rgb(0,0,0)" stroke-linejoin="miter" stroke-linecap="square"/></svg>