<?xml version="1.0" standalone="no"?><!-- Generator: Gravit.io --><svg xmlns="http://www.w3.org/2000/svg" xmlns:xlink="http://www.w3.org/1999/xlink" style="isolation:isolate" viewBox="497.426776864181 993.8094302554026 1049.5909048646993 249.0117878192533" width="1049.5909048646993" height="249.0117878192533"><rect x="1401.2220039292733" y="1033.473699094323" width="135.7956777996069" height="199.347518980333" transform="matrix(1,0,0,1,0,0)" fill="rgb(23,23,23)" stroke-width="20" stroke="rgb(178,225,106)" stroke-linejoin="miter" stroke-linecap="square"/><defs><filter id="DzWMtZsJy15jAOsF09Z8DK5jLpbJToUX" x="-200%" y="-200%" width="400%" height="400%"><feOffset xmlns="http://www.w3.org/2000/svg" in="SourceAlpha" result="offOut" dx="5" dy="5"/><feGaussianBlur xmlns="http://www.w3.org/2000/svg" in="offOut" result="blurOut" stdDeviation="2.5"/><feComponentTransfer xmlns="http://www.w3.org/2000/svg" in="blurOut" result="opacOut"><feFuncA xmlns="http://www.w3.org/2000/svg" type="table" tableValues="0 0.5"/></feComponentTransfer><feBlend xmlns="http://www.w3.org/2000/svg" in="SourceGraphic" in2="opacOut" mode="normal"/></filter></defs><g filter="url(#DzWMtZsJy15jAOsF09Z8DK5jLpbJToUX)"><rect x="1364.5543913264935" y="1003.8094302554026" width="135.7956777996069" height="199.34751898033312" transform="matrix(1,0,0,1,0,0)" fill="rgb(23,23,23)" stroke-width="20" stroke="rgb(178,225,106)" stroke-linejoin="miter" stroke-linecap="square"/></g><path d=" M 532.243183114181 1075.3943470653242 L 532.946308114181 1084.7986439403242 Q 541.383808114181 1073.6365345653242 555.006854989181 1073.6365345653242 Q 579.528339364181 1073.6365345653242 580.231464364181 1108.0017689403242 L 580.231464364181 1170.4920033153242 L 555.270526864181 1170.4920033153242 L 555.270526864181 1109.8474720653242 Q 555.270526864181 1101.7615345653242 552.853534676681 1098.1140736278242 Q 550.436542489181 1094.4666126903242 544.372089364181 1094.4666126903242 Q 537.604511239181 1094.4666126903242 533.825214364181 1101.4099720653242 L 533.825214364181 1170.4920033153242 L 508.864276864181 1170.4920033153242 L 508.864276864181 1075.3943470653242 L 532.243183114181 1075.3943470653242 Z  M 643.249042489181 1170.4920033153242 Q 642.194354989181 1168.2947376903242 641.139667489181 1163.1091908153242 Q 634.459979989181 1172.2498158153242 623.034198739181 1172.2498158153242 Q 611.081073739181 1172.2498158153242 603.214862801681 1164.3396595653242 Q 595.348651864181 1156.4295033153242 595.348651864181 1143.8611439403242 Q 595.348651864181 1128.9197376903242 604.884784676681 1120.7459095653242 Q 614.420917489181 1112.5720814403242 632.350604989181 1112.3963001903242 L 639.909198739181 1112.3963001903242 L 639.909198739181 1104.7498158153242 Q 639.909198739181 1098.3338001903242 637.711933114181 1095.6970814403242 Q 635.514667489181 1093.0603626903242 631.295917489181 1093.0603626903242 Q 621.979511239181 1093.0603626903242 621.979511239181 1103.9588001903242 L 597.106464364181 1103.9588001903242 Q 597.106464364181 1090.7752064403242 606.994159676681 1082.2058705028242 Q 616.881854989181 1073.6365345653242 631.999042489181 1073.6365345653242 Q 647.643573739181 1073.6365345653242 656.212909676681 1081.7664173778242 Q 664.782245614181 1089.8963001903242 664.782245614181 1105.0134876903242 L 664.782245614181 1149.7498158153242 Q 664.958026864181 1162.0545033153242 668.297870614181 1168.9978626903242 L 668.297870614181 1170.4920033153242 L 643.249042489181 1170.4920033153242 Z  M 628.571308114181 1152.7380970653242 Q 632.702167489181 1152.7380970653242 635.602558114181 1151.0681751903242 Q 638.502948739181 1149.3982533153242 639.909198739181 1147.1130970653242 L 639.909198739181 1127.3377064403242 L 633.932636239181 1127.3377064403242 Q 627.604511239181 1127.3377064403242 623.957050301681 1131.3806751903242 Q 620.309589364181 1135.4236439403242 620.309589364181 1142.1912220653242 Q 620.309589364181 1152.7380970653242 628.571308114181 1152.7380970653242 Z  M 705.563495614181 1075.3943470653242 L 706.266620614181 1084.7986439403242 Q 714.704120614181 1073.6365345653242 728.327167489181 1073.6365345653242 Q 752.848651864181 1073.6365345653242 753.551776864181 1108.0017689403242 L 753.551776864181 1170.4920033153242 L 728.590839364181 1170.4920033153242 L 728.590839364181 1109.8474720653242 Q 728.590839364181 1101.7615345653242 726.173847176681 1098.1140736278242 Q 723.756854989181 1094.4666126903242 717.692401864181 1094.4666126903242 Q 710.924823739181 1094.4666126903242 707.145526864181 1101.4099720653242 L 707.145526864181 1170.4920033153242 L 682.184589364181 1170.4920033153242 L 682.184589364181 1075.3943470653242 L 705.563495614181 1075.3943470653242 Z  M 768.493183114181 1119.8670033153242 Q 768.493183114181 1098.2459095653242 778.688495614181 1085.9412220653242 Q 788.883808114181 1073.6365345653242 806.901386239181 1073.6365345653242 Q 825.094745614181 1073.6365345653242 835.290058114181 1085.9412220653242 Q 845.485370614181 1098.2459095653242 845.485370614181 1120.0427845653242 L 845.485370614181 1126.1072376903242 Q 845.485370614181 1147.8162220653242 835.377948739181 1160.0330189403242 Q 825.270526864181 1172.2498158153242 807.077167489181 1172.2498158153242 Q 788.795917489181 1172.2498158153242 778.644550301681 1159.9890736278242 Q 768.493183114181 1147.7283314403242 768.493183114181 1125.9314564403242 L 768.493183114181 1119.8670033153242 Z  M 793.454120614181 1126.1072376903242 Q 793.454120614181 1151.5955189403242 807.077167489181 1151.5955189403242 Q 819.645526864181 1151.5955189403242 820.612323739181 1130.3259876903242 L 820.700214364181 1119.8670033153242 Q 820.700214364181 1106.8591908153242 817.096698739181 1100.5750111278242 Q 813.493183114181 1094.2908314403242 806.901386239181 1094.2908314403242 Q 800.573261239181 1094.2908314403242 797.013690926681 1100.5750111278242 Q 793.454120614181 1106.8591908153242 793.454120614181 1119.8670033153242 L 793.454120614181 1126.1072376903242 Z  M 857.965839364181 1120.0427845653242 Q 857.965839364181 1096.6638783153242 866.403339364181 1085.1502064403242 Q 874.840839364181 1073.6365345653242 890.045917489181 1073.6365345653242 Q 902.965839364181 1073.6365345653242 909.997089364181 1083.8318470653242 L 910.963886239181 1075.3943470653242 L 933.375995614181 1075.3943470653242 L 933.375995614181 1170.4920033153242 Q 933.375995614181 1188.6853626903242 923.180683114181 1198.3093861278242 Q 912.985370614181 1207.9334095653242 893.913104989181 1207.9334095653242 Q 886.090839364181 1207.9334095653242 877.477558114181 1204.8132923778242 Q 868.864276864181 1201.6931751903242 864.645526864181 1196.8591908153242 L 872.995136239181 1179.6326283153242 Q 876.510761239181 1183.3240345653242 882.135761239181 1185.6531361278242 Q 887.760761239181 1187.9822376903242 892.770526864181 1187.9822376903242 Q 901.120136239181 1187.9822376903242 904.767597176681 1183.9832142528242 Q 908.415058114181 1179.9841908153242 908.502948739181 1171.1072376903242 L 908.502948739181 1162.9334095653242 Q 901.383808114181 1172.2498158153242 889.958026864181 1172.2498158153242 Q 874.752948739181 1172.2498158153242 866.447284676681 1160.4285267528242 Q 858.141620614181 1148.6072376903242 857.965839364181 1127.0740345653242 L 857.965839364181 1120.0427845653242 Z  M 882.838886239181 1126.2830189403242 Q 882.838886239181 1139.4666126903242 886.266620614181 1145.4871205028242 Q 889.694354989181 1151.5076283153242 897.165058114181 1151.5076283153242 Q 904.811542489181 1151.5076283153242 908.502948739181 1145.9705189403242 L 908.502948739181 1100.5310658153242 Q 904.635761239181 1094.4666126903242 897.340839364181 1094.4666126903242 Q 889.958026864181 1094.4666126903242 886.398456551681 1100.5310658153242 Q 882.838886239181 1106.5955189403242 882.838886239181 1120.0427845653242 L 882.838886239181 1126.2830189403242 Z  M 996.657245614181 1170.4920033153242 Q 995.602558114181 1168.2947376903242 994.547870614181 1163.1091908153242 Q 987.868183114181 1172.2498158153242 976.442401864181 1172.2498158153242 Q 964.489276864181 1172.2498158153242 956.623065926681 1164.3396595653242 Q 948.756854989181 1156.4295033153242 948.756854989181 1143.8611439403242 Q 948.756854989181 1128.9197376903242 958.292987801681 1120.7459095653242 Q 967.829120614181 1112.5720814403242 985.758808114181 1112.3963001903242 L 993.317401864181 1112.3963001903242 L 993.317401864181 1104.7498158153242 Q 993.317401864181 1098.3338001903242 991.120136239181 1095.6970814403242 Q 988.922870614181 1093.0603626903242 984.704120614181 1093.0603626903242 Q 975.387714364181 1093.0603626903242 975.387714364181 1103.9588001903242 L 950.514667489181 1103.9588001903242 Q 950.514667489181 1090.7752064403242 960.402362801681 1082.2058705028242 Q 970.290058114181 1073.6365345653242 985.407245614181 1073.6365345653242 Q 1001.051776864181 1073.6365345653242 1009.621112801681 1081.7664173778242 Q 1018.190448739181 1089.8963001903242 1018.190448739181 1105.0134876903242 L 1018.190448739181 1149.7498158153242 Q 1018.366229989181 1162.0545033153242 1021.706073739181 1168.9978626903242 L 1021.706073739181 1170.4920033153242 L 996.657245614181 1170.4920033153242 Z  M 981.979511239181 1152.7380970653242 Q 986.110370614181 1152.7380970653242 989.010761239181 1151.0681751903242 Q 991.911151864181 1149.3982533153242 993.317401864181 1147.1130970653242 L 993.317401864181 1127.3377064403242 L 987.340839364181 1127.3377064403242 Q 981.012714364181 1127.3377064403242 977.365253426681 1131.3806751903242 Q 973.717792489181 1135.4236439403242 973.717792489181 1142.1912220653242 Q 973.717792489181 1152.7380970653242 981.979511239181 1152.7380970653242 Z  M 1062.311542489181 1170.4920033153242 L 1037.350604989181 1170.4920033153242 L 1037.350604989181 1035.4920033153242 L 1062.311542489181 1035.4920033153242 L 1062.311542489181 1170.4920033153242 Z  M 1107.663104989181 1170.4920033153242 L 1082.702167489181 1170.4920033153242 L 1082.702167489181 1035.4920033153242 L 1107.663104989181 1035.4920033153242 L 1107.663104989181 1170.4920033153242 Z  M 1165.319354989181 1172.2498158153242 Q 1146.159198739181 1172.2498158153242 1135.436542489181 1160.8240345653242 Q 1124.713886239181 1149.3982533153242 1124.713886239181 1128.1287220653242 L 1124.713886239181 1120.5701283153242 Q 1124.713886239181 1098.0701283153242 1134.557636239181 1085.8533314403242 Q 1144.401386239181 1073.6365345653242 1162.770526864181 1073.6365345653242 Q 1180.700214364181 1073.6365345653242 1189.752948739181 1085.1062611278242 Q 1198.805683114181 1096.5759876903242 1198.981464364181 1119.0759876903242 L 1198.981464364181 1131.2927845653242 L 1149.499042489181 1131.2927845653242 Q 1150.026386239181 1141.8396595653242 1154.157245614181 1146.7175892528242 Q 1158.288104989181 1151.5955189403242 1166.901386239181 1151.5955189403242 Q 1179.381854989181 1151.5955189403242 1187.731464364181 1143.0701283153242 L 1197.487323739181 1158.0994251903242 Q 1192.917011239181 1164.4275501903242 1184.215839364181 1168.3386830028242 Q 1175.514667489181 1172.2498158153242 1165.319354989181 1172.2498158153242 Z  M 1149.674823739181 1113.8904408153242 L 1174.547870614181 1113.8904408153242 L 1174.547870614181 1111.6052845653242 Q 1174.372089364181 1103.0798939403242 1171.735370614181 1098.6853626903242 Q 1169.098651864181 1094.2908314403242 1162.594745614181 1094.2908314403242 Q 1156.090839364181 1094.2908314403242 1153.146503426681 1098.9490345653242 Q 1150.202167489181 1103.6072376903242 1149.674823739181 1113.8904408153242 Z  M 1259.977558114181 1099.3884876903242 L 1251.715839364181 1098.6853626903242 Q 1241.520526864181 1098.6853626903242 1237.917011239181 1107.6502064403242 L 1237.917011239181 1170.4920033153242 L 1212.956073739181 1170.4920033153242 L 1212.956073739181 1075.3943470653242 L 1236.422870614181 1075.3943470653242 L 1237.125995614181 1085.6775501903242 Q 1243.014667489181 1073.6365345653242 1253.385761239181 1073.6365345653242 Q 1257.604511239181 1073.6365345653242 1260.241229989181 1074.7791126903242 L 1259.977558114181 1099.3884876903242 Z  M 1303.219745614181 1129.0955189403242 L 1315.875995614181 1075.3943470653242 L 1342.418964364181 1075.3943470653242 L 1311.129901864181 1184.7302845653242 Q 1304.098651864181 1208.9002064403242 1284.674823739181 1208.9002064403242 Q 1280.192401864181 1208.9002064403242 1274.479511239181 1207.2302845653242 L 1274.479511239181 1187.8064564403242 L 1277.379901864181 1187.8943470653242 Q 1283.180683114181 1187.8943470653242 1286.125019051681 1185.6531361278242 Q 1289.069354989181 1183.4119251903242 1290.563495614181 1177.8748158153242 L 1292.497089364181 1171.4588001903242 L 1265.075214364181 1075.3943470653242 L 1291.793964364181 1075.3943470653242 L 1303.219745614181 1129.0955189403242 Z  M 1469.245136239181 1170.4920033153242 L 1393.834979989181 1170.4920033153242 L 1393.834979989181 1152.9138783153242 L 1428.463886239181 1108.8806751903242 Q 1435.055683114181 1099.7400501903242 1438.175800301681 1092.8406361278242 Q 1441.295917489181 1085.9412220653242 1441.295917489181 1079.6130970653242 Q 1441.295917489181 1071.0877064403242 1438.351581551681 1066.2537220653242 Q 1435.407245614181 1061.4197376903242 1429.870136239181 1061.4197376903242 Q 1423.805683114181 1061.4197376903242 1420.246112801681 1067.0447376903242 Q 1416.686542489181 1072.6697376903242 1416.686542489181 1082.8650501903242 L 1391.725604989181 1082.8650501903242 Q 1391.725604989181 1071.0877064403242 1396.603534676681 1061.3318470653242 Q 1401.481464364181 1051.5759876903242 1410.314472176681 1046.1707142528242 Q 1419.147479989181 1040.7654408153242 1430.309589364181 1040.7654408153242 Q 1447.448261239181 1040.7654408153242 1456.896503426681 1050.2136830028242 Q 1466.344745614181 1059.6619251903242 1466.344745614181 1077.0642689403242 Q 1466.344745614181 1087.8748158153242 1461.115253426681 1098.9929798778242 Q 1455.885761239181 1110.1111439403242 1442.174823739181 1126.3709095653242 L 1425.739276864181 1149.8377064403242 L 1469.245136239181 1149.8377064403242 L 1469.245136239181 1170.4920033153242 Z " fill-rule="evenodd" fill="rgb(255,255,255)" stroke-width="2" stroke="rgb(0,0,0)" stroke-linejoin="miter" stroke-linecap="square"/></svg>