<?xml version="1.0" encoding="iso-8859-1"?>
<!-- Generator: Adobe Illustrator 19.0.0, SVG Export Plug-In . SVG Version: 6.00 Build 0)  -->
<svg version="1.1" id="Layer_1" xmlns="http://www.w3.org/2000/svg" xmlns:xlink="http://www.w3.org/1999/xlink" x="0px" y="0px"
	 viewBox="0 0 512 512" style="enable-background:new 0 0 512 512;" xml:space="preserve">
<g>
	<g>
		<g>
			<path d="M102.4,315.733c0,32.939,26.795,59.733,59.733,59.733H332.8c42.342,0,76.8-34.458,76.8-76.8s-34.458-76.8-76.8-76.8
				c-17.792,0-35.149,6.229-48.862,17.545c-3.635,2.995-4.156,8.38-1.152,12.006c3.004,3.652,8.388,4.164,12.006,1.161
				c10.667-8.798,24.158-13.645,38.007-13.645c32.939,0,59.733,26.795,59.733,59.733c0,32.939-26.795,59.733-59.733,59.733H162.133
				c-23.526,0-42.667-19.14-42.667-42.667c0-18.662,12.467-35.447,30.336-40.841c4.301-1.297,6.852-5.709,5.845-10.095
				c-1.357-5.871-2.048-11.699-2.048-17.331c0-42.342,34.458-76.8,76.8-76.8c26.069,0,50.133,13.056,64.393,34.927
				c2.577,3.951,7.859,5.069,11.81,2.492c3.951-2.577,5.06-7.868,2.492-11.81C291.678,169.557,262.255,153.6,230.4,153.6
				c-51.755,0-93.867,42.112-93.867,93.867c0,4.531,0.358,9.148,1.067,13.79C116.267,270.788,102.4,291.814,102.4,315.733z"/>
			<path d="M247.467,84.122v48.853c0,4.719,3.823,8.533,8.533,8.533s8.533-3.814,8.533-8.533V84.122
				c14.677-3.814,25.6-17.067,25.6-32.922c0-18.825-15.309-34.133-34.133-34.133c-18.825,0-34.133,15.309-34.133,34.133
				C221.867,67.055,232.789,80.307,247.467,84.122z M256,34.133c9.412,0,17.067,7.654,17.067,17.067
				c0,9.412-7.654,17.067-17.067,17.067c-9.412,0-17.067-7.654-17.067-17.067C238.933,41.788,246.588,34.133,256,34.133z"/>
			<path d="M173.244,391.04l-39.748,38.724c-4.292-1.954-9.02-3.098-14.029-3.098c-18.825,0-34.133,15.309-34.133,34.133
				c0,18.825,15.309,34.133,34.133,34.133S153.6,479.625,153.6,460.8c0-7.586-2.569-14.532-6.776-20.207l38.332-37.325
				c3.371-3.285,3.448-8.695,0.154-12.066C182.033,387.823,176.623,387.746,173.244,391.04z M119.467,477.867
				c-9.412,0-17.067-7.654-17.067-17.067c0-9.412,7.654-17.067,17.067-17.067s17.067,7.654,17.067,17.067
				C136.533,470.212,128.879,477.867,119.467,477.867z"/>
			<path d="M477.867,170.667c-18.825,0-34.133,15.309-34.133,34.133c0,1.067,0.222,2.082,0.316,3.132l-37.53,14.507
				c-4.395,1.707-6.579,6.647-4.881,11.042c1.314,3.379,4.54,5.453,7.962,5.453c1.024,0,2.065-0.179,3.081-0.572l37.026-14.327
				c6.161,8.986,16.478,14.899,28.16,14.899c18.825,0,34.133-15.309,34.133-34.133S496.691,170.667,477.867,170.667z
				 M477.867,221.867c-9.412,0-17.067-7.654-17.067-17.067s7.654-17.067,17.067-17.067s17.067,7.654,17.067,17.067
				S487.279,221.867,477.867,221.867z"/>
			<path d="M392.533,426.667c-4.745,0-9.259,0.981-13.372,2.739l-31.258-37.7c-3.012-3.627-8.388-4.113-12.015-1.126
				c-3.627,3.012-4.139,8.397-1.126,12.023l30.95,37.333c-4.506,5.786-7.313,12.971-7.313,20.864
				c0,18.825,15.309,34.133,34.133,34.133c18.825,0,34.133-15.309,34.133-34.133C426.667,441.975,411.358,426.667,392.533,426.667z
				 M392.533,477.867c-9.412,0-17.067-7.654-17.067-17.067c0-9.412,7.654-17.067,17.067-17.067c9.412,0,17.067,7.654,17.067,17.067
				C409.6,470.212,401.946,477.867,392.533,477.867z"/>
			<path d="M115.908,244.267c3.413,0,6.639-2.065,7.953-5.444c1.707-4.386-0.469-9.335-4.864-11.042l-51.046-19.84
				c0.094-1.05,0.316-2.065,0.316-3.14c0-18.825-15.309-34.133-34.133-34.133C15.309,170.667,0,185.975,0,204.8
				s15.309,34.133,34.133,34.133c11.682,0,21.99-5.914,28.151-14.882l50.534,19.635
				C113.835,244.087,114.876,244.267,115.908,244.267z M34.133,221.867c-9.412,0-17.067-7.654-17.067-17.067
				s7.654-17.067,17.067-17.067c9.412,0,17.067,7.654,17.067,17.067S43.546,221.867,34.133,221.867z"/>
		</g>
	</g>
</g>
<g>
</g>
<g>
</g>
<g>
</g>
<g>
</g>
<g>
</g>
<g>
</g>
<g>
</g>
<g>
</g>
<g>
</g>
<g>
</g>
<g>
</g>
<g>
</g>
<g>
</g>
<g>
</g>
<g>
</g>
</svg>
