<?xml version="1.0" encoding="iso-8859-1"?>
<!-- Generator: Adobe Illustrator 19.0.0, SVG Export Plug-In . SVG Version: 6.00 Build 0)  -->
<svg version="1.1" id="Layer_1" xmlns="http://www.w3.org/2000/svg" xmlns:xlink="http://www.w3.org/1999/xlink" x="0px" y="0px"
	 viewBox="0 0 295.305 295.305" style="enable-background:new 0 0 295.305 295.305;" xml:space="preserve">
<g>
	<g>
		<g>
			<path d="M147.652,76.226c-31.51,0-57.143,25.633-57.143,57.143c0,20.543,10.871,39.229,28.571,49.443v5.381
				c-2.876,2.176-4.762,5.59-4.762,9.467c0,2.69,0.929,5.148,2.438,7.143c-1.51,1.99-2.438,4.448-2.438,7.138
				c0,6.567,5.338,11.905,11.905,11.905h42.857c6.567,0,11.905-5.338,11.905-11.905c0-2.69-0.929-5.148-2.438-7.143
				c1.51-1.995,2.438-4.452,2.438-7.143c0-3.876-1.886-7.29-4.762-9.467v-5.381c17.7-10.214,28.571-28.895,28.571-49.443
				C204.795,101.859,179.162,76.226,147.652,76.226z M169.081,214.321h-42.857c-1.31,0-2.381-1.071-2.381-2.381
				s1.071-2.381,2.381-2.381h42.857c1.31,0,2.381,1.071,2.381,2.381C171.463,213.25,170.391,214.321,169.081,214.321z
				 M169.081,200.036h-42.857c-1.31,0-2.381-1.071-2.381-2.381s1.071-2.381,2.381-2.381h42.857c1.31,0,2.381,1.071,2.381,2.381
				S170.391,200.036,169.081,200.036z M169.29,175.74l-2.59,1.333v8.676h-14.286v-34.01c8.195-2.129,14.286-9.524,14.286-18.371
				c0-10.505-8.543-19.048-19.048-19.048s-19.048,8.543-19.048,19.048c0,8.848,6.09,16.243,14.286,18.371v34.01h-14.286v-8.676
				l-2.59-1.329c-16.024-8.2-25.981-24.438-25.981-42.376c0-26.257,21.362-47.619,47.619-47.619
				c26.257,0,47.619,21.362,47.619,47.619C195.271,151.307,185.315,167.545,169.29,175.74z M147.652,142.893
				c-5.252,0-9.524-4.271-9.524-9.524c0-5.252,4.271-9.524,9.524-9.524c5.253,0,9.524,4.271,9.524,9.524
				C157.177,138.621,152.906,142.893,147.652,142.893z"/>
			<path d="M291.844,177.164c-3.338-15.252-8.995-30.643-16.633-45.719c11.105-38.01,6.176-73.252-15.962-95.386
				c-19.719-19.714-49.933-26.338-85.138-18.638c-3.424,0.748-6.852,1.662-10.286,2.662c-15.071-7.629-30.448-13.281-45.69-16.614
				C79.224-5.05,45.805,2.254,24.029,24.031c-21.777,21.777-29.076,55.2-20.567,94.11c3.338,15.252,8.99,30.643,16.629,45.719
				c-11.31,38.538-5.938,73.49,15.962,95.39c14.357,14.357,34.281,21.767,57.638,21.767c8.724,0,17.929-1.038,27.495-3.129
				c3.424-0.748,6.852-1.662,10.286-2.662c15.071,7.629,30.448,13.281,45.69,16.614c10.595,2.314,20.781,3.462,30.438,3.462
				c25.81,0,47.824-8.181,63.671-24.029C293.052,249.502,300.352,216.078,291.844,177.164z M252.515,42.793
				c17.838,17.838,22.89,45.633,16.081,76.495c-10.724-18.31-24.376-35.962-40.5-52.081c-16.119-16.124-33.771-29.776-52.081-40.5
				C206.601,19.969,234.495,24.774,252.515,42.793z M12.766,116.107c-7.795-35.629-1.405-65.938,17.995-85.343
				c14.01-14.01,33.7-21.233,56.986-21.233c8.957,0,18.452,1.071,28.357,3.238c11.571,2.533,23.248,6.467,34.795,11.652
				c-26.733,10.181-53.071,27.571-75.99,50.49c-8.29,8.29-15.905,17.157-22.762,26.357c-2.167-0.743-4.457-1.233-6.876-1.233
				c-11.814,0-21.429,9.614-21.429,21.429c0,6.09,2.581,11.562,6.671,15.467c-2.248,4.695-4.3,9.371-6.076,14.01
				C19.243,139.378,15.3,127.693,12.766,116.107z M57.177,121.464c0,6.562-5.338,11.905-11.905,11.905s-11.905-5.343-11.905-11.905
				s5.338-11.905,11.905-11.905S57.177,114.902,57.177,121.464z M42.79,252.516c-17.595-17.595-22.929-45.186-16.033-76.414
				c10.714,18.281,24.352,35.9,40.452,51.995c16.124,16.129,33.776,29.786,52.095,40.51C88.709,275.35,60.815,270.545,42.79,252.516
				z M73.941,221.364c-17.99-17.99-32.776-37.91-43.648-58.462c2.229-6.933,5.086-14,8.462-21.133
				c2.067,0.667,4.229,1.124,6.514,1.124c11.814,0,21.429-9.614,21.429-21.429c0-5.952-2.448-11.333-6.376-15.224
				c6.448-8.571,13.576-16.843,21.324-24.595c25.129-25.129,53.81-42.614,81.2-51.381c20.576,10.871,40.51,25.667,58.519,43.676
				c18.005,18.005,32.8,37.943,43.676,58.514c-5.313,16.52-13.87,33.6-25.551,50.315c-2.61-1.138-5.481-1.781-8.505-1.781
				c-11.814,0-21.429,9.614-21.429,21.429c0,4.352,1.319,8.39,3.557,11.771c-24.995,24.838-53.452,42.152-80.643,50.857
				C111.894,254.169,91.951,239.374,73.941,221.364z M242.891,202.416c0,6.567-5.338,11.905-11.905,11.905
				c-6.567,0-11.905-5.338-11.905-11.905c0-6.567,5.338-11.905,11.905-11.905C237.553,190.511,242.891,195.849,242.891,202.416z
				 M264.544,264.545c-19.395,19.4-49.69,25.8-85.343,17.995c-11.571-2.533-23.243-6.467-34.795-11.652
				c26.595-10.129,52.8-27.4,75.633-50.148c3.214,1.929,6.933,3.105,10.948,3.105c11.814,0,21.429-9.614,21.429-21.429
				c0-5.348-2.038-10.186-5.29-13.943c10.205-14.567,18.138-29.443,23.743-44.105c5.195,11.567,9.138,23.252,11.671,34.838
				C290.333,214.831,283.943,245.145,264.544,264.545z"/>
		</g>
	</g>
</g>
<g>
</g>
<g>
</g>
<g>
</g>
<g>
</g>
<g>
</g>
<g>
</g>
<g>
</g>
<g>
</g>
<g>
</g>
<g>
</g>
<g>
</g>
<g>
</g>
<g>
</g>
<g>
</g>
<g>
</g>
</svg>
