<?xml version='1.0' encoding='iso-8859-1'?>
<!DOCTYPE svg PUBLIC '-//W3C//DTD SVG 1.1//EN' 'http://www.w3.org/Graphics/SVG/1.1/DTD/svg11.dtd'>
<svg version="1.1" xmlns="http://www.w3.org/2000/svg" viewBox="0 0 403.893 403.893" xmlns:xlink="http://www.w3.org/1999/xlink" enable-background="new 0 0 403.893 403.893">
  <g>
    <path d="m129.339,63.189c5.523,0 10-4.477 10-10v-43.189c0-5.523-4.477-10-10-10s-10,4.477-10,10v43.189c0,5.523 4.477,10 10,10z"/>
    <path d="m129.339,195.488c-5.523,0-10,4.477-10,10v43.189c0,5.523 4.477,10 10,10s10-4.477 10-10v-43.189c0-5.523-4.478-10-10-10z"/>
    <path d="m52.024,37.883c-3.905-3.905-10.237-3.905-14.142,0s-3.905,10.237 0,14.142l30.539,30.539c1.953,1.953 4.512,2.929 7.071,2.929s5.119-0.976 7.071-2.929c3.905-3.905 3.905-10.237 0-14.142l-30.539-30.539z"/>
    <path d="m63.189,129.338c0-5.523-4.477-10-10-10h-43.189c-5.523,0-10,4.477-10,10s4.477,10 10,10h43.189c5.523,0 10-4.477 10-10z"/>
    <path d="m195.488,129.338c0,5.523 4.477,10 10,10h43.189c5.523,0 10-4.477 10-10s-4.477-10-10-10h-43.189c-5.523,0-10,4.477-10,10z"/>
    <path d="m68.422,176.113l-30.54,30.539c-3.905,3.905-3.906,10.237 0,14.142 1.953,1.953 4.512,2.929 7.071,2.929 2.559,0 5.119-0.977 7.071-2.929l30.54-30.539c3.905-3.905 3.906-10.237 0-14.142s-10.237-3.904-14.142,0z"/>
    <path d="m183.184,85.493c2.559,0 5.119-0.977 7.071-2.929l30.539-30.539c3.905-3.905 3.906-10.237 0-14.142s-10.237-3.905-14.142,0l-30.54,30.539c-3.905,3.905-3.906,10.237 0,14.142 1.954,1.953 4.513,2.929 7.072,2.929z"/>
    <path d="m400.964,359.951l-256.68-256.68c-11.308-11.307-29.705-11.307-41.013,0-11.307,11.307-11.307,29.706 0,41.013l256.68,256.68c1.953,1.953 4.512,2.929 7.071,2.929s5.119-0.976 7.071-2.929l26.87-26.87c3.906-3.906 3.906-10.238 0.001-14.143zm-283.55-242.537c1.754-1.755 4.059-2.632 6.364-2.632s4.609,0.877 6.364,2.632l40.305,40.305-12.728,12.728-40.305-40.305c-3.51-3.509-3.51-9.219 1.42109e-14-12.728zm249.608,262.336l-195.161-195.161 12.728-12.728 195.161,195.161-12.728,12.728z"/>
  </g>
</svg>
