<?xml version="1.0" encoding="iso-8859-1"?>
<!-- Generator: Adobe Illustrator 19.0.0, SVG Export Plug-In . SVG Version: 6.00 Build 0)  -->
<svg version="1.1" id="Layer_1" xmlns="http://www.w3.org/2000/svg" xmlns:xlink="http://www.w3.org/1999/xlink" x="0px" y="0px"
	 viewBox="0 0 512 512" style="enable-background:new 0 0 512 512;" xml:space="preserve">
<g>
	<g>
		<path d="M430.005,81.991c-3.983-3.982-10.441-3.981-14.424,0.002l-3.292,3.293c-3.982,3.984-3.982,10.442,0.002,14.425
			c1.992,1.992,4.601,2.986,7.211,2.986c2.611,0,5.222-0.996,7.213-2.988l3.292-3.293C433.988,92.432,433.988,85.974,430.005,81.991
			z"/>
	</g>
</g>
<g>
	<g>
		<path d="M499.606,0h-64.742c-5.633,0-10.199,4.567-10.199,10.199c0,5.632,4.566,10.199,10.199,10.199h42.314l-35.261,35.26
			c-3.983,3.983-3.984,10.441,0,14.425c1.992,1.991,4.602,2.987,7.212,2.987s5.221-0.996,7.212-2.987l33.066-33.066v37.924
			c0,5.632,4.566,10.199,10.199,10.199c5.633,0,10.199-4.567,10.199-10.199V10.199C509.805,4.567,505.239,0,499.606,0z"/>
	</g>
</g>
<g>
	<g>
		<path d="M499.606,426.859c-5.633,0-10.199,4.567-10.199,10.199v37.924l-83.059-83.058c32.568-35.989,52.432-83.679,52.432-135.925
			c0-111.813-90.967-202.78-202.78-202.78c-52.244,0-99.935,19.864-135.925,52.431L34.822,20.398h42.314
			c5.633,0,10.199-4.567,10.199-10.199C87.336,4.567,82.77,0,77.137,0H12.394C6.761,0,2.195,4.567,2.195,10.199v64.742
			c0,5.632,4.566,10.199,10.199,10.199c5.633,0,10.199-4.567,10.199-10.199V37.017l83.059,83.058
			C73.084,156.064,53.22,203.755,53.22,256s19.864,99.936,52.432,135.925l-83.059,83.058v-37.924
			c0-5.632-4.566-10.199-10.199-10.199c-5.633,0-10.199,4.567-10.199,10.199v64.741c0,5.632,4.566,10.199,10.199,10.199h64.742
			c5.633,0,10.199-4.567,10.199-10.199c0-5.632-4.566-10.199-10.199-10.199H34.822l85.254-85.253
			c35.989,32.567,83.679,52.431,135.925,52.431s99.935-19.864,135.925-52.431l85.252,85.253h-42.314
			c-5.633,0-10.199,4.567-10.199,10.199c0,5.632,4.566,10.199,10.199,10.199h64.742c5.633,0,10.199-4.567,10.199-10.199v-64.742
			C509.805,431.426,505.239,426.859,499.606,426.859z M256,438.381c-100.565,0-182.381-81.815-182.381-182.381
			S155.435,73.619,256,73.619S438.381,155.434,438.381,256S356.565,438.381,256,438.381z"/>
	</g>
</g>
<g>
	<g>
		<path d="M296.682,133.862c-7.18-7.664-17.322-12.06-27.825-12.06h-25.711c-10.502,0-20.644,4.396-27.826,12.06
			c-7.181,7.664-10.907,18.071-10.224,28.551l1.142,17.523l2.668,40.917c1.055,16.165,10.157,30.474,24.35,38.28
			c7.121,3.918,14.932,5.876,22.744,5.876c7.811,0,15.623-1.958,22.743-5.875c14.193-7.807,23.296-22.117,24.351-38.281l3.05-46.757
			l0.762-11.683C307.589,151.933,303.862,141.526,296.682,133.862z M225.45,161.087c-0.322-4.946,1.366-9.661,4.754-13.277
			s7.984-5.609,12.94-5.609h19.073l-3.704,9.877c-1.329,1.899-9.634,12.347-32.609,15.963L225.45,161.087z M282.737,219.526
			c-0.598,9.177-5.766,17.303-13.825,21.736c-8.085,4.448-17.74,4.447-25.825-0.001c-8.058-4.432-13.226-12.557-13.825-21.734
			l-2.027-31.069c19.043-2.641,31.318-9.172,38.881-15.206c1.468,1.066,3.114,2.07,4.934,3.011c3.241,1.675,7.923,3.334,14.18,5.024
			L282.737,219.526z M280.415,158.141c-0.838-0.433-1.474-0.818-1.961-1.145l3.413-9.102c3.193,3.449,4.856,7.881,4.713,12.557
			C282.959,159.333,281.184,158.537,280.415,158.141z"/>
	</g>
</g>
<g>
	<g>
		<path d="M367.913,331.787c-5.223-28.824-28.058-51.828-56.822-57.243c-4.344-0.819-8.786-1.233-13.201-1.233h-12.823
			c-2.705,0-5.299,1.075-7.212,2.987L256,298.151l-21.853-21.854c-1.912-1.912-4.507-2.987-7.212-2.987h-12.825
			c-4.416,0-8.857,0.414-13.2,1.233c-28.766,5.416-51.601,28.419-56.822,57.244c-1.597,8.818,0.781,17.821,6.525,24.699
			c5.744,6.877,14.178,10.822,23.14,10.822h164.493c8.962,0,17.396-3.945,23.14-10.822
			C367.132,349.608,369.51,340.605,367.913,331.787z M345.731,343.411c-1.091,1.307-3.516,3.5-7.483,3.5H173.754
			c-3.969,0-6.392-2.193-7.483-3.5c-1.091-1.308-2.817-4.084-2.11-7.988c3.725-20.562,20.011-36.971,40.526-40.834
			c3.103-0.584,6.273-0.88,9.425-0.88h8.6l26.077,26.078c1.912,1.912,4.507,2.987,7.212,2.987c2.705,0,5.3-1.075,7.212-2.987
			l26.078-26.078h8.599c3.152,0,6.323,0.296,9.426,0.88c20.514,3.862,36.8,20.272,40.524,40.834
			C348.548,339.328,346.822,342.104,345.731,343.411z"/>
	</g>
</g>
<g>
</g>
<g>
</g>
<g>
</g>
<g>
</g>
<g>
</g>
<g>
</g>
<g>
</g>
<g>
</g>
<g>
</g>
<g>
</g>
<g>
</g>
<g>
</g>
<g>
</g>
<g>
</g>
<g>
</g>
</svg>
