<?xml version="1.0" standalone="no"?><!-- Generator: Gravit.io --><svg xmlns="http://www.w3.org/2000/svg" xmlns:xlink="http://www.w3.org/1999/xlink" style="isolation:isolate" viewBox="159 471.8831861686841 221 188.11681383131588" width="221" height="188.11681383131588"><defs><filter id="93m0amIyATkxdhGHZdXxS3uqvwNH1aX3" x="-200%" y="-200%" width="400%" height="400%"><feOffset xmlns="http://www.w3.org/2000/svg" in="SourceAlpha" result="offOut" dx="5" dy="5"/><feGaussianBlur xmlns="http://www.w3.org/2000/svg" in="offOut" result="blurOut" stdDeviation="2.5"/><feComponentTransfer xmlns="http://www.w3.org/2000/svg" in="blurOut" result="opacOut"><feFuncA xmlns="http://www.w3.org/2000/svg" type="table" tableValues="0 0.5"/></feComponentTransfer><feBlend xmlns="http://www.w3.org/2000/svg" in="SourceGraphic" in2="opacOut" mode="normal"/></filter></defs><g filter="url(#93m0amIyATkxdhGHZdXxS3uqvwNH1aX3)"><rect x="234.49999999999997" y="487.32624050983344" width="70.00000000000003" height="105.34751898033306" transform="matrix(0.9659258262890682,0.2588190451025207,-0.2588190451025207,0.9659258262890682,148.94527417045728,-51.35167885122621)" fill="none" stroke-width="10" stroke="rgb(178,225,106)" stroke-linejoin="miter" stroke-linecap="square"/></g><defs><filter id="b5t2L03cN3BJmiNao60suQOopdjcpTbO" x="-200%" y="-200%" width="400%" height="400%"><feOffset xmlns="http://www.w3.org/2000/svg" in="SourceAlpha" result="offOut" dx="5" dy="5"/><feGaussianBlur xmlns="http://www.w3.org/2000/svg" in="offOut" result="blurOut" stdDeviation="2.5"/><feComponentTransfer xmlns="http://www.w3.org/2000/svg" in="blurOut" result="opacOut"><feFuncA xmlns="http://www.w3.org/2000/svg" type="table" tableValues="0 0.5"/></feComponentTransfer><feBlend xmlns="http://www.w3.org/2000/svg" in="SourceGraphic" in2="opacOut" mode="normal"/></filter></defs><g filter="url(#b5t2L03cN3BJmiNao60suQOopdjcpTbO)"><rect x="234.5" y="487.32624050983344" width="70" height="105.34751898033306" transform="matrix(0.9659258262890684,-0.2588190451025207,0.2588190451025207,0.9659258262890684,-130.5792945402651,88.15178645903234)" fill="none" stroke-width="10" stroke="rgb(178,225,106)" stroke-linejoin="miter" stroke-linecap="square"/></g><defs><filter id="uSG6zvjtTCjqYOmz9175AH0tnw7UPu3W" x="-200%" y="-200%" width="400%" height="400%"><feOffset xmlns="http://www.w3.org/2000/svg" in="SourceAlpha" result="offOut" dx="5" dy="5"/><feGaussianBlur xmlns="http://www.w3.org/2000/svg" in="offOut" result="blurOut" stdDeviation="2.5"/><feComponentTransfer xmlns="http://www.w3.org/2000/svg" in="blurOut" result="opacOut"><feFuncA xmlns="http://www.w3.org/2000/svg" type="table" tableValues="0 0.5"/></feComponentTransfer><feBlend xmlns="http://www.w3.org/2000/svg" in="SourceGraphic" in2="opacOut" mode="normal"/></filter></defs><g filter="url(#uSG6zvjtTCjqYOmz9175AH0tnw7UPu3W)"><rect x="234.49999999999997" y="487.32624050983344" width="70.00000000000003" height="105.34751898033306" transform="matrix(0.8660254037844386,0.5,-0.5,0.8660254037844386,306.1061536800938,-62.40371804359688)" fill="none" stroke-width="10" stroke="rgb(178,225,106)" stroke-linejoin="miter" stroke-linecap="square"/></g><defs><filter id="PmW7ArRDNXcGiwBb4bG8MEmKWLiX9w7E" x="-200%" y="-200%" width="400%" height="400%"><feOffset xmlns="http://www.w3.org/2000/svg" in="SourceAlpha" result="offOut" dx="5" dy="5"/><feGaussianBlur xmlns="http://www.w3.org/2000/svg" in="offOut" result="blurOut" stdDeviation="2.5"/><feComponentTransfer xmlns="http://www.w3.org/2000/svg" in="blurOut" result="opacOut"><feFuncA xmlns="http://www.w3.org/2000/svg" type="table" tableValues="0 0.5"/></feComponentTransfer><feBlend xmlns="http://www.w3.org/2000/svg" in="SourceGraphic" in2="opacOut" mode="normal"/></filter></defs><g filter="url(#PmW7ArRDNXcGiwBb4bG8MEmKWLiX9w7E)"><rect x="259.5" y="518.1631202549167" width="5.814106789716561" height="43.6737594901665" transform="matrix(1,3.031196091530012e-16,-4.5172488799318546e-17,1,0,-1.1368683772161603e-13)" fill="none" stroke-width="5" stroke="rgb(247,252,240)" stroke-linejoin="miter" stroke-linecap="square"/></g><defs><filter id="YcQmxBl582VIZOZRNbxYkLp5IVfqsFNe" x="-200%" y="-200%" width="400%" height="400%"><feOffset xmlns="http://www.w3.org/2000/svg" in="SourceAlpha" result="offOut" dx="5" dy="5"/><feGaussianBlur xmlns="http://www.w3.org/2000/svg" in="offOut" result="blurOut" stdDeviation="2.5"/><feComponentTransfer xmlns="http://www.w3.org/2000/svg" in="blurOut" result="opacOut"><feFuncA xmlns="http://www.w3.org/2000/svg" type="table" tableValues="0 0.5"/></feComponentTransfer><feBlend xmlns="http://www.w3.org/2000/svg" in="SourceGraphic" in2="opacOut" mode="normal"/></filter></defs><g filter="url(#YcQmxBl582VIZOZRNbxYkLp5IVfqsFNe)"><rect x="273.68589321028344" y="518.1631202549167" width="5.814106789716561" height="43.6737594901665" transform="matrix(1,3.031196091530012e-16,-4.5172488799318546e-17,1,0,-1.1368683772161603e-13)" fill="none" stroke-width="5" stroke="rgb(247,252,240)" stroke-linejoin="miter" stroke-linecap="square"/></g><path d=" M 166.423828125 627.556640625 L 166.587890625 629.7509765625 Q 168.556640625 627.146484375 171.7353515625 627.146484375 Q 177.45703125 627.146484375 177.62109375 635.1650390625 L 177.62109375 649.74609375 L 171.796875 649.74609375 L 171.796875 635.595703125 Q 171.796875 633.708984375 171.23291015625 632.85791015625 Q 170.6689453125 632.0068359375 169.25390625 632.0068359375 Q 167.6748046875 632.0068359375 166.79296875 633.626953125 L 166.79296875 649.74609375 L 160.96875 649.74609375 L 160.96875 627.556640625 L 166.423828125 627.556640625 Z  M 192.3251953125 649.74609375 Q 192.0791015625 649.2333984375 191.8330078125 648.0234375 Q 190.2744140625 650.15625 187.6083984375 650.15625 Q 184.8193359375 650.15625 182.98388671875 648.310546875 Q 181.1484375 646.46484375 181.1484375 643.5322265625 Q 181.1484375 640.0458984375 183.37353515625 638.138671875 Q 185.5986328125 636.2314453125 189.7822265625 636.1904296875 L 191.5458984375 636.1904296875 L 191.5458984375 634.40625 Q 191.5458984375 632.9091796875 191.033203125 632.2939453125 Q 190.5205078125 631.6787109375 189.5361328125 631.6787109375 Q 187.3623046875 631.6787109375 187.3623046875 634.2216796875 L 181.55859375 634.2216796875 Q 181.55859375 631.1455078125 183.86572265625 629.14599609375 Q 186.1728515625 627.146484375 189.7001953125 627.146484375 Q 193.3505859375 627.146484375 195.35009765625 629.04345703125 Q 197.349609375 630.9404296875 197.349609375 634.4677734375 L 197.349609375 644.90625 Q 197.390625 647.77734375 198.169921875 649.3974609375 L 198.169921875 649.74609375 L 192.3251953125 649.74609375 Z  M 188.900390625 645.603515625 Q 189.8642578125 645.603515625 190.541015625 645.2138671875 Q 191.2177734375 644.82421875 191.5458984375 644.291015625 L 191.5458984375 639.6767578125 L 190.1513671875 639.6767578125 Q 188.6748046875 639.6767578125 187.82373046875 640.6201171875 Q 186.97265625 641.5634765625 186.97265625 643.142578125 Q 186.97265625 645.603515625 188.900390625 645.603515625 Z  M 206.865234375 627.556640625 L 207.029296875 629.7509765625 Q 208.998046875 627.146484375 212.1767578125 627.146484375 Q 217.8984375 627.146484375 218.0625 635.1650390625 L 218.0625 649.74609375 L 212.23828125 649.74609375 L 212.23828125 635.595703125 Q 212.23828125 633.708984375 211.67431640625 632.85791015625 Q 211.1103515625 632.0068359375 209.6953125 632.0068359375 Q 208.1162109375 632.0068359375 207.234375 633.626953125 L 207.234375 649.74609375 L 201.41015625 649.74609375 L 201.41015625 627.556640625 L 206.865234375 627.556640625 Z  M 221.548828125 637.93359375 Q 221.548828125 632.888671875 223.927734375 630.017578125 Q 226.306640625 627.146484375 230.5107421875 627.146484375 Q 234.755859375 627.146484375 237.134765625 630.017578125 Q 239.513671875 632.888671875 239.513671875 637.974609375 L 239.513671875 639.3896484375 Q 239.513671875 644.455078125 237.1552734375 647.3056640625 Q 234.796875 650.15625 230.5517578125 650.15625 Q 226.2861328125 650.15625 223.91748046875 647.29541015625 Q 221.548828125 644.4345703125 221.548828125 639.3486328125 L 221.548828125 637.93359375 Z  M 227.373046875 639.3896484375 Q 227.373046875 645.3369140625 230.5517578125 645.3369140625 Q 233.484375 645.3369140625 233.7099609375 640.3740234375 L 233.73046875 637.93359375 Q 233.73046875 634.8984375 232.8896484375 633.43212890625 Q 232.048828125 631.9658203125 230.5107421875 631.9658203125 Q 229.0341796875 631.9658203125 228.20361328125 633.43212890625 Q 227.373046875 634.8984375 227.373046875 637.93359375 L 227.373046875 639.3896484375 Z  M 242.42578125 637.974609375 Q 242.42578125 632.51953125 244.39453125 629.8330078125 Q 246.36328125 627.146484375 249.9111328125 627.146484375 Q 252.92578125 627.146484375 254.56640625 629.525390625 L 254.7919921875 627.556640625 L 260.021484375 627.556640625 L 260.021484375 649.74609375 Q 260.021484375 653.9912109375 257.642578125 656.23681640625 Q 255.263671875 658.482421875 250.8134765625 658.482421875 Q 248.98828125 658.482421875 246.978515625 657.75439453125 Q 244.96875 657.0263671875 243.984375 655.8984375 L 245.9326171875 651.87890625 Q 246.7529296875 652.740234375 248.0654296875 653.28369140625 Q 249.3779296875 653.8271484375 250.546875 653.8271484375 Q 252.4951171875 653.8271484375 253.34619140625 652.89404296875 Q 254.197265625 651.9609375 254.2177734375 649.8896484375 L 254.2177734375 647.982421875 Q 252.556640625 650.15625 249.890625 650.15625 Q 246.3427734375 650.15625 244.40478515625 647.39794921875 Q 242.466796875 644.6396484375 242.42578125 639.615234375 L 242.42578125 637.974609375 Z  M 248.2294921875 639.4306640625 Q 248.2294921875 642.5068359375 249.029296875 643.91162109375 Q 249.8291015625 645.31640625 251.572265625 645.31640625 Q 253.3564453125 645.31640625 254.2177734375 644.0244140625 L 254.2177734375 633.421875 Q 253.3154296875 632.0068359375 251.61328125 632.0068359375 Q 249.890625 632.0068359375 249.06005859375 633.421875 Q 248.2294921875 634.8369140625 248.2294921875 637.974609375 L 248.2294921875 639.4306640625 Z  M 274.787109375 649.74609375 Q 274.541015625 649.2333984375 274.294921875 648.0234375 Q 272.736328125 650.15625 270.0703125 650.15625 Q 267.28125 650.15625 265.44580078125 648.310546875 Q 263.6103515625 646.46484375 263.6103515625 643.5322265625 Q 263.6103515625 640.0458984375 265.83544921875 638.138671875 Q 268.060546875 636.2314453125 272.244140625 636.1904296875 L 274.0078125 636.1904296875 L 274.0078125 634.40625 Q 274.0078125 632.9091796875 273.4951171875 632.2939453125 Q 272.982421875 631.6787109375 271.998046875 631.6787109375 Q 269.82421875 631.6787109375 269.82421875 634.2216796875 L 264.0205078125 634.2216796875 Q 264.0205078125 631.1455078125 266.32763671875 629.14599609375 Q 268.634765625 627.146484375 272.162109375 627.146484375 Q 275.8125 627.146484375 277.81201171875 629.04345703125 Q 279.8115234375 630.9404296875 279.8115234375 634.4677734375 L 279.8115234375 644.90625 Q 279.8525390625 647.77734375 280.6318359375 649.3974609375 L 280.6318359375 649.74609375 L 274.787109375 649.74609375 Z  M 271.3623046875 645.603515625 Q 272.326171875 645.603515625 273.0029296875 645.2138671875 Q 273.6796875 644.82421875 274.0078125 644.291015625 L 274.0078125 639.6767578125 L 272.61328125 639.6767578125 Q 271.13671875 639.6767578125 270.28564453125 640.6201171875 Q 269.4345703125 641.5634765625 269.4345703125 643.142578125 Q 269.4345703125 645.603515625 271.3623046875 645.603515625 Z  M 290.1064453125 649.74609375 L 284.2822265625 649.74609375 L 284.2822265625 618.24609375 L 290.1064453125 618.24609375 L 290.1064453125 649.74609375 Z  M 300.6884765625 649.74609375 L 294.8642578125 649.74609375 L 294.8642578125 618.24609375 L 300.6884765625 618.24609375 L 300.6884765625 649.74609375 Z  M 314.1416015625 650.15625 Q 309.6708984375 650.15625 307.1689453125 647.490234375 Q 304.6669921875 644.82421875 304.6669921875 639.861328125 L 304.6669921875 638.09765625 Q 304.6669921875 632.84765625 306.9638671875 629.9970703125 Q 309.2607421875 627.146484375 313.546875 627.146484375 Q 317.73046875 627.146484375 319.8427734375 629.82275390625 Q 321.955078125 632.4990234375 321.99609375 637.7490234375 L 321.99609375 640.599609375 L 310.4501953125 640.599609375 Q 310.5732421875 643.060546875 311.537109375 644.19873046875 Q 312.5009765625 645.3369140625 314.5107421875 645.3369140625 Q 317.4228515625 645.3369140625 319.37109375 643.34765625 L 321.6474609375 646.8544921875 Q 320.5810546875 648.3310546875 318.55078125 649.24365234375 Q 316.5205078125 650.15625 314.1416015625 650.15625 Z  M 310.4912109375 636.5390625 L 316.294921875 636.5390625 L 316.294921875 636.005859375 Q 316.25390625 634.0166015625 315.638671875 632.9912109375 Q 315.0234375 631.9658203125 313.505859375 631.9658203125 Q 311.98828125 631.9658203125 311.30126953125 633.052734375 Q 310.6142578125 634.1396484375 310.4912109375 636.5390625 Z  M 336.228515625 633.1552734375 L 334.30078125 632.9912109375 Q 331.921875 632.9912109375 331.0810546875 635.0830078125 L 331.0810546875 649.74609375 L 325.2568359375 649.74609375 L 325.2568359375 627.556640625 L 330.732421875 627.556640625 L 330.896484375 629.9560546875 Q 332.2705078125 627.146484375 334.6904296875 627.146484375 Q 335.6748046875 627.146484375 336.2900390625 627.4130859375 L 336.228515625 633.1552734375 Z  M 346.318359375 640.0869140625 L 349.271484375 627.556640625 L 355.46484375 627.556640625 L 348.1640625 653.068359375 Q 346.5234375 658.7080078125 341.9912109375 658.7080078125 Q 340.9453125 658.7080078125 339.6123046875 658.318359375 L 339.6123046875 653.7861328125 L 340.2890625 653.806640625 Q 341.642578125 653.806640625 342.32958984375 653.28369140625 Q 343.0166015625 652.7607421875 343.365234375 651.46875 L 343.81640625 649.9716796875 L 337.41796875 627.556640625 L 343.65234375 627.556640625 L 346.318359375 640.0869140625 Z  M 375.3779296875 649.74609375 L 357.7822265625 649.74609375 L 357.7822265625 645.64453125 L 365.8623046875 635.3701171875 Q 367.400390625 633.2373046875 368.12841796875 631.62744140625 Q 368.8564453125 630.017578125 368.8564453125 628.541015625 Q 368.8564453125 626.5517578125 368.16943359375 625.423828125 Q 367.482421875 624.2958984375 366.1904296875 624.2958984375 Q 364.775390625 624.2958984375 363.94482421875 625.6083984375 Q 363.1142578125 626.9208984375 363.1142578125 629.2998046875 L 357.2900390625 629.2998046875 Q 357.2900390625 626.5517578125 358.42822265625 624.275390625 Q 359.56640625 621.9990234375 361.62744140625 620.73779296875 Q 363.6884765625 619.4765625 366.29296875 619.4765625 Q 370.2919921875 619.4765625 372.49658203125 621.68115234375 Q 374.701171875 623.8857421875 374.701171875 627.9462890625 Q 374.701171875 630.46875 373.48095703125 633.06298828125 Q 372.2607421875 635.6572265625 369.0615234375 639.451171875 L 365.2265625 644.9267578125 L 375.3779296875 644.9267578125 L 375.3779296875 649.74609375 Z " fill-rule="evenodd" fill="rgb(255,255,255)" stroke-width="1" stroke="rgba(0,0,0,0)" stroke-linejoin="miter" stroke-linecap="square"/></svg>