<?xml version="1.0" encoding="iso-8859-1"?>
<!-- Generator: Adobe Illustrator 19.0.0, SVG Export Plug-In . SVG Version: 6.00 Build 0)  -->
<svg version="1.1" id="Capa_1" xmlns="http://www.w3.org/2000/svg" xmlns:xlink="http://www.w3.org/1999/xlink" x="0px" y="0px"
	 viewBox="0 0 490 490" style="enable-background:new 0 0 490 490;" xml:space="preserve">
<g>
	<path d="M149.226,162.391h191.548c5.762,0,10.426-4.663,10.426-10.426V35.512c0-5.762-4.663-10.426-10.426-10.426H240.102
		l-16.31-20.159c-1.976-2.443-4.958-3.869-8.104-3.869h-66.463c-5.763,0-10.426,4.663-10.426,10.426v140.481
		C138.8,157.727,143.463,162.391,149.226,162.391z M159.651,21.91h51.058l16.311,20.159c1.975,2.444,4.958,3.869,8.104,3.869h95.225
		v95.602H159.651V21.91z"/>
	<path d="M479.574,351.638H378.902l-16.32-20.159c-1.985-2.444-4.958-3.869-8.104-3.869h-66.463
		c-5.763,0-10.426,4.663-10.426,10.426v140.48c0,5.763,4.663,10.426,10.426,10.426h191.559c5.762,0,10.426-4.662,10.426-10.426
		V362.064C490,356.301,485.337,351.638,479.574,351.638z M469.149,468.09H298.441V348.461h51.068l16.31,20.159
		c1.976,2.444,4.958,3.869,8.105,3.869h95.225V468.09z"/>
	<path d="M201.984,351.638H101.312l-16.32-20.159c-1.975-2.444-4.958-3.869-8.104-3.869H10.425C4.662,327.61,0,332.274,0,338.036
		v140.48c0,5.763,4.662,10.426,10.425,10.426h191.559c5.762,0,10.426-4.662,10.426-10.426V362.064
		C212.41,356.301,207.746,351.638,201.984,351.638z M191.559,468.09H20.851V348.461h51.058L88.23,368.62
		c1.975,2.444,4.958,3.869,8.104,3.869h95.225V468.09z"/>
	<polygon points="301.292,279.738 260.475,238.921 260.475,192.578 239.624,192.578 239.624,238.922 198.808,279.738 
		213.55,294.481 250.049,257.981 286.549,294.481 	"/>
</g>
<g>
</g>
<g>
</g>
<g>
</g>
<g>
</g>
<g>
</g>
<g>
</g>
<g>
</g>
<g>
</g>
<g>
</g>
<g>
</g>
<g>
</g>
<g>
</g>
<g>
</g>
<g>
</g>
<g>
</g>
</svg>
