<?xml version="1.0" encoding="iso-8859-1"?>
<!-- Generator: Adobe Illustrator 16.0.0, SVG Export Plug-In . SVG Version: 6.00 Build 0)  -->
<!DOCTYPE svg PUBLIC "-//W3C//DTD SVG 1.1//EN" "http://www.w3.org/Graphics/SVG/1.1/DTD/svg11.dtd">
<svg version="1.1" id="Capa_1" xmlns="http://www.w3.org/2000/svg" xmlns:xlink="http://www.w3.org/1999/xlink" x="0px" y="0px"
	 width="396.494px" height="396.494px" viewBox="0 0 396.494 396.494" style="enable-background:new 0 0 396.494 396.494;"
	 xml:space="preserve">
<g>
	<path d="M304.42,330.901h-43.219c-1.56,0-2.834-1.273-2.834-2.834v-10.52c0-1.559-1.275-2.834-2.834-2.834h-60.475
		c-1.56,0-2.835,1.275-2.835,2.834v10.52c0,1.561-1.275,2.834-2.835,2.834h-32.491c-1.56,0-2.835,1.275-2.835,2.834v12.17
		c0,1.559,1.275,2.834,2.835,2.834h147.521c1.559,0,2.834-1.275,2.834-2.834v-12.17C307.254,332.179,305.979,330.901,304.42,330.901
		z"/>
	<g>
		<path d="M377.032,46.368h-308.4c-10.73,0-19.459,8.73-19.459,19.462c0,0,0,37.109,0,50.761c0,6.711-0.498,7.66,4.004,7.66
			c2.391,0,5.039,0,7.72,0c3.778,0,3.003-0.949,3.003-7.785c0-13.621,0-50.636,0-50.636c0-2.565,2.168-4.733,4.732-4.733h308.4
			c2.563,0,4.731,2.168,4.731,4.733v189.999h-219.87c0,0-7.749-0.014-7.749,10.006c0,5.941,0,17.823,0,23.766
			c0,10.006,8,10.006,8,10.006h214.888c10.729,0,19.461-8.729,19.461-19.459V65.83C396.493,55.099,387.763,46.368,377.032,46.368z
			 M222.833,282.804c-4.845,0-8.771-3.926-8.771-8.768s3.926-8.77,8.771-8.77c4.84,0,8.767,3.928,8.767,8.77
			S227.673,282.804,222.833,282.804z"/>
		<path d="M124.125,141.633H12.559C5.632,141.633,0,147.266,0,154.193v183.372c0,6.926,5.632,12.561,12.559,12.561h111.566
			c6.923,0,12.559-5.635,12.559-12.561V154.193C136.684,147.266,131.048,141.633,124.125,141.633z M54.58,154.443h27.523
			c1.313,0,2.38,1.064,2.38,2.381c0,1.314-1.066,2.379-2.38,2.379H54.58c-1.315,0-2.379-1.065-2.379-2.379
			C52.201,155.507,53.265,154.443,54.58,154.443z M68.175,341.304c-3.59,0-6.5-2.91-6.5-6.5s2.91-6.5,6.5-6.5s6.5,2.91,6.5,6.5
			S71.765,341.304,68.175,341.304z M125.893,322.2c0,1.676-1.342,3.047-2.98,3.047H13.774c-1.639,0-2.98-1.371-2.98-3.047V169.825
			c0-1.676,1.342-3.046,2.98-3.046h109.139c1.639,0,2.98,1.371,2.98,3.046V322.2z"/>
	</g>
</g>
<g>
</g>
<g>
</g>
<g>
</g>
<g>
</g>
<g>
</g>
<g>
</g>
<g>
</g>
<g>
</g>
<g>
</g>
<g>
</g>
<g>
</g>
<g>
</g>
<g>
</g>
<g>
</g>
<g>
</g>
</svg>
