<?xml version="1.0" encoding="iso-8859-1"?>
<!-- Generator: Adobe Illustrator 19.0.0, SVG Export Plug-In . SVG Version: 6.00 Build 0)  -->
<svg version="1.1" id="Capa_1" xmlns="http://www.w3.org/2000/svg" xmlns:xlink="http://www.w3.org/1999/xlink" x="0px" y="0px"
	 viewBox="0 0 255 255" style="enable-background:new 0 0 255 255;" xml:space="preserve">
<g>
	
		<line style="fill:none;stroke:#000000;stroke-width:0;stroke-linecap:round;stroke-linejoin:round;" x1="63.669" y1="0.19" x2="63.669" y2="0.19"/>
	<g>
		<path d="M219.997,133.778c-4.798-28.576-23.252-33.701-32.059-34.483c-6.629-8.678-16.091-13.412-26.982-13.412
			c-2.342,0-4.718,0.216-7.105,0.644c-6.448-7.716-15.344-11.91-25.472-11.911c-7.638,0-14.398,2.393-19.053,5.121L90.363,20.131
			C86.476,7.773,76.25,0,63.669,0c0,0-0.003,0-0.005,0c-9.507,0-18.447,4.539-23.917,11.985c-5.285,7.194-6.628,16.204-3.782,25.281
			l23.934,75.315c-3.391,1.953-6.413,4.57-8.922,7.724c-4.898,6.16-7.831,14.317-8.715,24.233
			c-1.314,14.728,3.561,31.153,14.488,48.813c7.366,11.904,15.595,21.192,18.958,24.801l11.244,26.337
			C89.696,250.944,96,255,103.013,255h74.855c8.527,0,15.762-5.984,17.201-14.39c0.034-0.199,0.063-0.342,0.087-0.542l3.139-26.21
			c0.146-0.333,0.317-0.708,0.51-1.147C215.57,174.504,222.501,148.695,219.997,133.778z M186.876,210.063
			c-0.164,0.388-0.281,0.789-0.353,1.204l-3.282,27.317c-0.448,2.618-2.718,4.416-5.373,4.416h-74.855
			c-2.187,0-4.161-1.19-5.017-3.203L86.29,212.315c-0.256-0.601-0.619-1.12-1.069-1.592c-4.811-5.04-33.565-36.462-31.007-65.127
			c1.515-16.975,9.766-22.468,15.402-24.236c2.843-0.892,4.386-3.959,3.495-6.802L47.415,33.722
			c-4.028-12.85,6.196-21.534,16.252-21.533c6.382,0.001,12.697,3.501,15.254,11.656l21.995,69.019
			c0.773,2.468,3.013,3.846,5.263,3.846c1.571,0,3.148-0.673,4.232-2.118c0.921-1.226,2.014-2.385,3.311-3.387
			c2.885-2.231,8.513-4.589,14.656-4.589c6.311,0.001,13.165,2.489,18.144,10.156c1.047,1.612,2.8,2.559,4.642,2.559
			c0.503,0,1.012-0.071,1.516-0.217c2.182-0.635,5.079-1.231,8.276-1.23c6.185,0,13.483,2.229,18.854,10.721
			c1.006,1.591,2.733,2.574,4.607,2.574c0.049,0,0.097-0.001,0.145-0.002c0.19-0.005,0.389-0.008,0.593-0.008
			c6.441,0,19.351,2.819,23.007,24.598C211.56,155.995,189.406,204.093,186.876,210.063z"/>
		<path d="M116.516,35h58.489l-12.887,12.888c-2.343,2.343-2.343,6.142,0.001,8.485c1.171,1.171,2.707,1.757,4.242,1.757
			c1.535,0,3.071-0.586,4.243-1.758l22.386-22.387c2.343-2.343,2.343-6.142-0.001-8.485L170.014,2.525
			c-2.342-2.342-6.142-2.343-8.485,0.001c-2.343,2.343-2.343,6.142,0.001,8.485L173.519,23h-57.003c-3.314,0-6,2.687-6,6
			S113.202,35,116.516,35z"/>
	</g>
</g>
<g>
</g>
<g>
</g>
<g>
</g>
<g>
</g>
<g>
</g>
<g>
</g>
<g>
</g>
<g>
</g>
<g>
</g>
<g>
</g>
<g>
</g>
<g>
</g>
<g>
</g>
<g>
</g>
<g>
</g>
</svg>
