<?xml version="1.0" encoding="iso-8859-1"?>
<!-- Generator: Adobe Illustrator 19.0.0, SVG Export Plug-In . SVG Version: 6.00 Build 0)  -->
<svg version="1.1" id="Layer_1" xmlns="http://www.w3.org/2000/svg" xmlns:xlink="http://www.w3.org/1999/xlink" x="0px" y="0px"
	 viewBox="0 0 512.025 512.025" style="enable-background:new 0 0 512.025 512.025;" xml:space="preserve">
<g>
	<g>
		<g>
			<path d="M54.144,66.206c1.664,1.673,3.849,2.5,6.033,2.5c2.185,0,4.369-0.828,6.033-2.5c3.337-3.328,3.337-8.738,0-12.066
				L42.069,30.007c-3.337-3.337-8.738-3.337-12.066,0c-3.336,3.328-3.336,8.738,0,12.066L54.144,66.206z"/>
			<path d="M144.649,68.714c2.185,0,4.369-0.836,6.033-2.5l24.132-24.141c3.336-3.337,3.336-8.738,0-12.066
				c-3.328-3.337-8.73-3.337-12.066,0l-24.132,24.141c-3.337,3.328-3.337,8.738,0,12.066
				C140.279,67.878,142.464,68.714,144.649,68.714z"/>
			<path d="M102.409,51.213c4.71,0,8.533-3.823,8.533-8.533V8.546c0-4.71-3.823-8.533-8.533-8.533c-4.71,0-8.533,3.823-8.533,8.533
				v34.133C93.875,47.39,97.698,51.213,102.409,51.213z"/>
			<path d="M51.209,102.413c0-4.71-3.823-8.533-8.533-8.533H8.533c-4.71,0-8.533,3.823-8.533,8.533c0,4.71,3.823,8.533,8.533,8.533
				h34.142C47.386,110.946,51.209,107.123,51.209,102.413z"/>
			<path d="M54.135,138.62L29.995,162.76c-3.337,3.337-3.337,8.738,0,12.066c1.664,1.672,3.849,2.5,6.033,2.5
				c2.185,0,4.369-0.828,6.033-2.5l24.141-24.141c3.328-3.328,3.328-8.73,0-12.066C62.865,135.283,57.464,135.283,54.135,138.62z"/>
			<path d="M511.411,397.896c-9.301-23.168-11.392-40.09-13.423-56.448c-2.739-22.059-5.564-44.877-25.805-79.94l-55.467-96.077
				c-8.934-15.462-31.147-21.436-46.635-12.493c-5.18,2.995-9.498,7.484-12.467,12.851c-5.743-8.269-14.123-14.174-23.953-16.811
				c-11.008-2.953-22.502-1.425-32.375,4.258c-9.387,5.419-15.932,13.892-19.115,23.441c-13.346-11.025-32.7-13.244-48.546-4.079
				c-9.225,5.325-16,13.713-19.243,23.782L140.945,93.103C119.339,63.654,98.091,69.645,87.33,75.865
				c-9.907,5.717-16.444,14.822-18.423,25.651c-1.818,9.958,0.324,20.881,6.161,30.967l118.084,191.855
				c2.466,4.011,7.723,5.265,11.733,2.799c4.019-2.475,5.274-7.723,2.799-11.733L89.719,123.746
				c-3.678-6.383-5.111-13.184-4.019-19.174c1.075-5.897,4.591-10.709,10.163-13.926c3.84-2.219,15.514-8.977,31.249,12.45
				l91.341,128.469c2.637,3.703,7.723,4.693,11.571,2.236c3.831-2.466,5.052-7.509,2.773-11.452
				c-3.422-5.922-4.326-12.817-2.56-19.43c1.766-6.605,6.007-12.126,11.921-15.539c12.228-7.049,27.93-2.859,34.978,9.37
				l8.499,14.729c0.017,0.017,0.026,0.034,0.034,0.051c2.355,4.087,7.578,5.47,11.657,3.123c4.079-2.355,5.478-7.569,3.123-11.656
				c-7.057-12.228-2.859-27.913,9.37-34.97c5.914-3.422,12.851-4.326,19.422-2.56c6.613,1.775,12.126,6.007,15.539,11.93
				l12.774,22.118c0.009,0.017,0.017,0.034,0.026,0.051c2.364,4.079,7.578,5.47,11.665,3.123c4.079-2.355,5.478-7.569,3.123-11.657
				c-2.159-3.729-2.697-8.448-1.468-12.937c1.229-4.471,4.036-8.252,7.714-10.377c7.475-4.318,19.021-1.212,23.322,6.246
				l55.467,96.077c18.517,32.06,21.009,52.198,23.646,73.506c1.963,15.804,3.977,32.094,11.87,53.777l-165.086,95.317
				c-28.757-30.967-72.713-63.462-130.79-96.666c-6.281-3.593-12.51-7.066-18.628-10.402c-15.684-8.55-26.761-25.549-26.957-41.327
				c-0.085-7.168,2.167-17.075,13.397-23.552c4.087-2.364,5.487-7.586,3.132-11.665c-2.364-4.079-7.595-5.478-11.665-3.123
				c-14.336,8.286-22.127,21.973-21.922,38.545c0.256,22.008,14.669,44.553,35.849,56.115c6.016,3.277,12.143,6.69,18.321,10.223
				c59.699,34.133,103.825,67.217,131.149,98.321c1.664,1.894,4.019,2.901,6.409,2.901c1.459,0,2.935-0.375,4.267-1.143
				l177.365-102.4C511.437,406.344,512.99,401.839,511.411,397.896z"/>
		</g>
	</g>
</g>
<g>
</g>
<g>
</g>
<g>
</g>
<g>
</g>
<g>
</g>
<g>
</g>
<g>
</g>
<g>
</g>
<g>
</g>
<g>
</g>
<g>
</g>
<g>
</g>
<g>
</g>
<g>
</g>
<g>
</g>
</svg>
