<?xml version="1.0" encoding="iso-8859-1"?>
<!-- Generator: Adobe Illustrator 19.0.0, SVG Export Plug-In . SVG Version: 6.00 Build 0)  -->
<svg version="1.1" id="Capa_1" xmlns="http://www.w3.org/2000/svg" xmlns:xlink="http://www.w3.org/1999/xlink" x="0px" y="0px"
	 viewBox="0 0 280.08 280.08" style="enable-background:new 0 0 280.08 280.08;" xml:space="preserve">
<g>
	<path d="M278.958,139.467c-2.73-16.259-10.822-24.907-17.131-29.299c-6.564-4.569-13.465-6.279-18.712-6.847
		C236.464,94.386,226.85,89.5,215.79,89.5c-2.416,0-4.879,0.231-7.352,0.689c-6.556-7.522-15.793-11.625-25.964-11.626
		c-0.188,0-0.766,0.002-0.766,0.002v-37.72c0-16.233-12.269-28.473-28.5-28.473c-16.231,0-28.5,12.24-28.5,28.473v105.355
		c0,1.642-1.268,2.194-1.951,2.194c-0.33,0-0.543-0.089-0.888-0.271c-9.366-4.95-19.909-9.698-33.3-14.941
		c-3.819-1.495-7.692-2.254-11.566-2.254c-12.739-0.002-23.684,8.157-27.255,20.302c-3.646,12.398,1.748,25.393,13.733,33.105
		c7.606,4.895,15.618,8.834,23.362,12.644c11.766,5.787,22.881,11.253,27.292,17.765c3.829,5.653,12.267,21.57,22.569,42.486
		c3.268,6.634,9.894,10.81,17.293,10.81h76.996c9.627,0,17.843-7.252,19.111-16.795l3.916-29.504
		C275.894,188.182,283.122,164.271,278.958,139.467z M242.266,219.065l-4.059,30.6c-0.48,3.618-3.566,6.376-7.216,6.376h-76.996
		c-2.773,0-5.302-1.625-6.526-4.112c-4.869-9.884-17.428-35.071-23.398-43.887c-9.66-14.26-34.5-21.173-54.09-33.781
		c-17.068-10.985-8.381-31.326,7.049-31.324c2.279,0,4.708,0.441,7.221,1.425c11.25,4.404,22.072,9.061,32.126,14.375
		c2.157,1.14,4.182,1.661,6.38,1.661c7.423,0,13.951-5.958,13.951-14.195V40.846c0-10.982,8.264-16.473,16.5-16.473
		c8.236,0,16.5,5.491,16.5,16.473v42.839c0,4.095,3.545,7.271,7.507,7.271c0.358,0,0.824-0.026,1.189-0.079
		c1.305-0.191,2.758-0.313,4.222-0.313c5.899,0.001,12.806,1.963,18.094,9.209c1.382,1.894,3.587,2.929,5.864,2.929
		c0.626,0,1.266-0.078,1.89-0.238c2.042-0.525,4.57-0.963,7.313-0.963c6.124,0,13.34,2.181,18.707,10.433
		c1.24,1.906,3.357,3.059,5.629,3.181c7.361,0.396,23.234,3.9,27,26.341c3.571,21.267-2.496,42.222-23.719,74.565
		C242.803,216.936,242.409,217.979,242.266,219.065z"/>
	<path d="M64.359,65.04h38c3.313,0,6-2.687,6-6s-2.687-6-6-6H77.344l29.617-29.617c2.344-2.343,2.344-6.142,0-8.484
		c-2.342-2.344-6.469-2.344-8.811,0L69.707,43.056V18.04c0-3.314-2.687-6-6-6c-3.314,0-6,2.687-6,6v41
		C57.707,62.354,61.046,65.04,64.359,65.04z"/>
	<path d="M49.707,79.04c0-3.313-2.034-6-5.348-6h-38c-3.313,0-6,2.687-6,6s2.687,6,6,6h25.016L1.758,114.657
		c-2.344,2.343-2.344,6.142,0,8.484C2.929,124.314,4.465,124.9,6,124.9c1.535,0,2.745-0.586,3.915-1.758l27.792-28.117v25.016
		c0,3.313,2.686,6,6,6c3.313,0,6-2.687,6-6V79.04z"/>
</g>
<g>
</g>
<g>
</g>
<g>
</g>
<g>
</g>
<g>
</g>
<g>
</g>
<g>
</g>
<g>
</g>
<g>
</g>
<g>
</g>
<g>
</g>
<g>
</g>
<g>
</g>
<g>
</g>
<g>
</g>
</svg>
